<svg xmlns="http://www.w3.org/2000/svg" id="Layer_2" data-name="Layer 2" viewBox="0 0 310.14 314.51"><defs><style>.cls-1{fill:#fff;stroke-width:0}</style></defs><g id="Ahri"><path d="M133.92 230.25c-6.77-39.74-93.5-87.58-90.85-134.7C46.75 30.47 109.52 34.67 100.22 0 92.12 32.74 3.69 31.53.07 115.73c-1.52 35.41 22.46 61.74 39.62 73.69 27.25 18.97 76.93 12.42 94.23 40.83Z" class="cls-1"/><path d="M66.96 136.39c-7.7-63.3 36.28-97.61 68.89-116.7-56.05 15.7-89.4 62.58-68.89 116.7ZM103.38 123.82c-1.7 2.42-22.93 23.06-23.72 24.21-.68.99 12.58 14.43 13.67 14.43s22.47-21.68 22.47-22.93-11.84-16.53-12.42-15.71ZM93.25 97.7c27.16 17.42 45.31 51.31 61.82 92.57 16.51-41.26 34.67-75.15 61.82-92.57-7.4-19.39-22.55-34.48-34.27-34.48-7.25 0-23.93 18.43-27.56 33.95-3.63-15.52-20.31-33.95-27.56-33.95-11.71 0-26.86 15.09-34.27 34.48Zm61.82 23.44v38.66c-14.36-28.34-29.39-51.32-45.8-63.37 0 0 7.7-19.34 18.13-19.51 8.45-.13 26.36 33.02 27.66 44.21ZM147.7 243.87c1.88 0 3.3-7.18 3.3-14.72 0-31.69-22.62-51.24-22.62-51.24 18.14 24.38 15.6 65.94 19.32 65.96Z" class="cls-1"/><path d="M310.07 115.73C306.44 31.53 218.01 32.74 209.92 0c-9.3 34.67 53.47 30.47 57.14 95.56 2.66 47.11-84.08 94.95-90.85 134.7 17.3-28.41 66.98-21.87 94.23-40.83 17.17-11.95 41.15-38.28 39.62-73.69Z" class="cls-1"/><path d="M174.28 19.69c32.62 19.09 76.59 53.4 68.89 116.7 20.5-54.12-12.84-100.99-68.89-116.7ZM206.75 123.82c-.58-.82-12.42 14.46-12.42 15.71s21.39 22.93 22.47 22.93 14.35-13.45 13.67-14.43c-.79-1.14-22.02-21.79-23.72-24.21ZM155.07 286.38l-65.56-66.33-60.45-19.1 28.12 15.32 97.89 98.24 97.88-98.24 28.13-15.32-60.45 19.1-65.56 66.33z" class="cls-1"/><path d="M162.44 243.87c3.72-.02 1.18-41.58 19.32-65.96 0 0-22.62 19.55-22.62 51.24 0 7.54 1.41 14.73 3.3 14.72Z" class="cls-1"/></g></svg>