<svg xmlns="http://www.w3.org/2000/svg" id="Layer_2" data-name="Layer 2" viewBox="0 0 278.97 316.89"><defs><style>.cls-1{fill:#fff;stroke-width:0}</style></defs><g id="Akali"><path d="M70.01 163.98 0 87.99l80.45 122.9-10.44-46.91zM49.89 208.36l5.29-5.89-25.96-19.61 6 12.45-13.14 13.2 108.83 108.38-7.94-34.98-73.08-73.55zM171.68 132.9l-14.96-18.78 14.96-6.91-13.41-9.18-7.12-58.09 10.01-10.11L139.49 0l-21.67 29.82 10.01 10.11-7.12 58.09-13.41 9.18 14.96 6.91-14.96 18.78-41.38-30.96 73.57 198.85 73.57-198.85-41.38 30.96Zm-32.19 115.82-29.79-89.87 29.79-30.8v120.67Zm0-214.86-6.58-6.85 6.58-10.97 6.58 10.97-6.58 6.85ZM198.53 210.89l80.44-122.9-70.01 75.99-10.43 46.91zM249.75 182.86l-25.95 19.61 5.29 5.89L156 281.91l-7.93 34.98 108.82-108.38-13.13-13.2 5.99-12.45z" class="cls-1"/></g></svg>