<?xml version="1.0" encoding="UTF-8"?>
<svg id="Layer_2" data-name="Layer 2" xmlns="http://www.w3.org/2000/svg" viewBox="0 0 278.97 316.89">
  <defs>
    <style>
      .cls-1 {
        fill: #fff;
        stroke-width: 0px;
      }
    </style>
  </defs>
  <g id="Akali">
    <g>
      <polygon class="cls-1" points="70.01 163.98 0 87.99 80.45 210.89 70.01 163.98"/>
      <polygon class="cls-1" points="49.89 208.36 55.18 202.47 29.22 182.86 35.22 195.31 22.08 208.51 130.91 316.89 122.97 281.91 49.89 208.36"/>
      <path class="cls-1" d="M171.68,132.9l-14.96-18.78,14.96-6.91-13.41-9.18-7.12-58.09,10.01-10.11L139.49,0l-21.67,29.82,10.01,10.11-7.12,58.09-13.41,9.18,14.96,6.91-14.96,18.78-41.38-30.96,73.57,198.85,73.57-198.85-41.38,30.96ZM139.49,248.72l-29.79-89.87,29.79-30.8v120.67ZM139.49,33.86l-6.58-6.85,6.58-10.97,6.58,10.97-6.58,6.85Z"/>
      <polygon class="cls-1" points="198.53 210.89 278.97 87.99 208.96 163.98 198.53 210.89"/>
      <polygon class="cls-1" points="249.75 182.86 223.8 202.47 229.09 208.36 156 281.91 148.07 316.89 256.89 208.51 243.76 195.31 249.75 182.86"/>
    </g>
  </g>
</svg>