<?xml version="1.0" encoding="UTF-8"?>
<svg id="Layer_2" data-name="Layer 2" xmlns="http://www.w3.org/2000/svg" viewBox="0 0 378.56 121.28">
  <defs>
    <style>
      .cls-1, .cls-2 {
        fill: #fff;
        stroke-width: 0px;
      }

      .cls-2 {
        fill-rule: evenodd;
      }
    </style>
  </defs>
  <g id="Layer_5" data-name="Layer 5">
    <g id="Amazon_Music" data-name="Amazon Music">
      <g>
        <path class="cls-1" d="M2.34,5.32h3.94v21.97h11.81v3.39H2.34V5.32Z"/>
        <path class="cls-1" d="M22.29,7.16c0-1.21.98-2.2,2.21-2.2s2.21.98,2.21,2.2-.97,2.18-2.21,2.18-2.21-.98-2.21-2.18ZM22.6,12.19h3.8v18.49h-3.8V12.19Z"/>
        <path class="cls-1" d="M30.97,25.39l-.02-.16h3.76l.04.18c.35,1.71,1.62,2.71,3.96,2.71s3.66-.95,3.66-2.44v-.02c0-1.2-.67-1.88-2.65-2.36l-3.02-.69c-3.52-.81-5.26-2.5-5.26-5.19v-.02c0-3.3,2.88-5.57,7.14-5.57s7.01,2.44,7.21,5.59l.02.21h-3.57l-.02-.12c-.23-1.62-1.49-2.74-3.64-2.74s-3.32.97-3.32,2.44v.02c0,1.14.76,1.92,2.74,2.39l3.01.69c3.78.88,5.22,2.37,5.22,5.03v.02c0,3.38-3.16,5.7-7.52,5.7-4.62,0-7.33-2.29-7.72-5.66Z"/>
        <path class="cls-1" d="M51.66,25.81v-10.6h-2.65v-3.02h2.65v-4.82h3.88v4.82h3.46v3.02h-3.46v10.37c0,1.88.84,2.44,2.44,2.44.4,0,.74-.04,1.02-.07v2.94c-.44.07-1.16.16-1.93.16-3.66,0-5.41-1.55-5.41-5.24Z"/>
        <path class="cls-1" d="M62.31,21.51v-.02c0-5.78,3.34-9.65,8.53-9.65s8.37,3.73,8.37,9.28v1.28h-13.1c.07,3.5,1.99,5.54,5.01,5.54,2.25,0,3.74-1.16,4.22-2.55l.05-.14h3.6l-.04.19c-.6,2.94-3.45,5.61-7.93,5.61-5.43,0-8.72-3.71-8.72-9.54ZM66.16,19.71h9.28c-.32-3.2-2.11-4.76-4.59-4.76s-4.36,1.67-4.69,4.76Z"/>
        <path class="cls-1" d="M83.58,12.19h3.8v2.79h.09c.97-1.88,2.87-3.15,5.66-3.15,4.06,0,6.4,2.62,6.4,6.87v11.97h-3.81v-11.25c0-2.78-1.3-4.34-3.94-4.34s-4.39,1.93-4.39,4.82v10.78h-3.8V12.19Z"/>
        <path class="cls-1" d="M112.53,21.44v-.04c0-5.91,3.5-9.56,8.75-9.56s8.79,3.64,8.79,9.56v.04c0,5.96-3.48,9.62-8.77,9.62s-8.77-3.67-8.77-9.62ZM126.18,21.44v-.04c0-4.04-1.93-6.38-4.9-6.38s-4.87,2.34-4.87,6.38v.04c0,4.1,1.93,6.43,4.9,6.43s4.87-2.36,4.87-6.43Z"/>
        <path class="cls-1" d="M134.44,12.19h3.8v2.79h.09c.97-1.88,2.87-3.15,5.66-3.15,4.06,0,6.4,2.62,6.4,6.87v11.97h-3.81v-11.25c0-2.78-1.3-4.34-3.94-4.34s-4.39,1.93-4.39,4.82v10.78h-3.8V12.19Z"/>
      </g>
      <path class="cls-2" d="M118.19,67.1v-4.58c0-.64.46-1.1,1.1-1.19h19.99c.64,0,1.1.46,1.1,1.1h0v3.94c-.28,1.1-.73,2.02-1.47,2.84l-10.36,15.04c3.94-.18,7.88.64,11.37,2.48.64.37,1.01,1.01,1.01,1.74v4.86c0,.64-.46,1.1-1.01,1.1-.18,0-.28,0-.46-.09-6.6-3.48-14.49-3.48-21.09,0-.73.37-1.38-.37-1.38-1.1v-4.58c-.09-1.1.18-2.2.73-3.12l12.01-17.51h-10.36c-.64.18-1.19-.28-1.19-.92h0ZM37.05,94.51c-.55,0-1.1-.46-1.1-1.1v-32.09c0-.64.55-1.19,1.19-1.19h5.87c.64,0,1.1.46,1.19,1.1v4.22h.09c1.1-3.67,4.49-6.05,8.25-5.96,3.94,0,6.42,1.83,8.16,5.96,1.83-4.77,7.24-7.15,12.01-5.32,1.56.55,2.93,1.56,3.94,2.84,2.02,2.66,1.56,6.6,1.56,10.08v20.35c0,.64-.55,1.19-1.19,1.19h-6.33c-.64,0-1.1-.55-1.1-1.1v-17.05c.09-2.02,0-4.03-.18-6.05-.28-1.74-1.93-3.03-3.67-2.75h0c-1.65.09-3.12,1.1-3.76,2.66-.55,2.02-.73,4.13-.55,6.14v16.96c0,.64-.55,1.19-1.19,1.19h-6.33c-.64,0-1.1-.55-1.1-1.1v-17.05c0-3.58.55-8.89-3.85-8.89s-4.31,5.13-4.31,8.89v16.96c0,.64-.55,1.19-1.19,1.19h-6.42v-.09ZM156.97,59.58c9.35,0,14.39,7.79,14.39,17.79s-5.59,17.24-14.39,17.24-14.21-7.79-14.21-17.6,5.04-17.42,14.21-17.42h0ZM152.02,75.99c0,3.85,0,12.1,4.95,12.1s5.13-6.6,5.13-10.73c.09-2.84-.18-5.59-.92-8.34-.37-1.93-2.2-3.21-4.13-3.03-4.77,0-5.04,6.14-5.04,9.99ZM183.74,94.51h-5.78c-.55,0-1.01-.55-1.01-1.1v-32.09c.09-.64.55-1.1,1.1-1.01h5.41c.46,0,.92.37,1.01.92v4.86h.09c1.65-4.4,3.94-6.42,7.98-6.42,2.75-.18,5.32,1.28,6.78,3.76,1.56,2.57,1.56,6.88,1.56,9.99v20.26c-.09.55-.55,1.01-1.1,1.01h-5.87c-.55,0-1.01-.46-1.01-1.01v-17.33c0-3.58.37-8.62-3.67-8.62-1.47.09-2.75,1.1-3.3,2.57-.73,1.93-1.01,4.03-.92,6.05v17.05c-.09.64-.64,1.19-1.28,1.1h0ZM108.29,94.05c-.37.37-1.01.37-1.47.18-1.38-1.1-2.57-2.48-3.48-4.13-2.48,3.03-6.23,4.68-10.18,4.49-5.32,0-9.26-3.21-9.26-9.53-.09-4.4,2.48-8.34,6.6-9.99,3.39-1.47,8.07-1.74,11.64-2.11v-.83c.18-1.56-.09-3.03-.73-4.4-.83-1.1-2.2-1.65-3.48-1.56-2.38-.18-4.49,1.38-4.95,3.67-.09.55-.55,1.01-1.1,1.1l-5.96-.64c-.55-.09-1.01-.73-.83-1.28,1.38-7.24,7.88-9.35,13.84-9.35,3.39-.09,6.6,1.01,9.26,3.03,3.03,2.75,2.75,6.51,2.75,10.54v9.53c0,2.11.83,4.13,2.29,5.68.46.46.46,1.19,0,1.65-1.56.92-3.76,2.84-4.95,3.94h0ZM102.24,79.29v-1.28c-4.49,0-9.17.92-9.17,5.87,0,2.57,1.38,4.22,3.76,4.22,1.83-.09,3.48-1.1,4.31-2.66.92-1.93,1.28-4.03,1.1-6.14h0ZM27.15,94.05c-.37.37-1.01.37-1.47.18-1.38-1.1-2.57-2.57-3.48-4.03-2.48,3.03-6.23,4.68-10.18,4.49-5.23,0-9.26-3.21-9.26-9.53-.18-4.4,2.48-8.34,6.6-9.99,3.3-1.47,7.98-1.74,11.55-2.11v-.83c.18-1.56-.09-3.03-.73-4.4-.83-1.1-2.11-1.65-3.48-1.56-2.29-.18-4.4,1.38-4.95,3.67-.09.55-.46,1.01-1.1,1.1l-5.96-.64c-.55-.09-.92-.73-.83-1.28,1.38-7.24,7.88-9.35,13.75-9.35,3.39-.09,6.6.92,9.26,3.03,3.03,2.75,2.75,6.51,2.75,10.54v9.53c0,2.11.83,4.13,2.29,5.68.46.46.46,1.1,0,1.56h0c-1.28.92-3.58,2.84-4.77,3.94h0ZM21.1,78.01c-4.49,0-9.17.92-9.17,5.87,0,2.57,1.38,4.22,3.76,4.22,1.83-.09,3.48-1.1,4.22-2.66,1.01-1.93,1.38-4.03,1.19-6.23v-1.19h0ZM83.35,121.28c-19.34.09-38.05-7.43-52.44-21.18-1.1-1.01-.09-2.48,1.19-1.65,16.04,9.63,34.11,14.76,52.62,14.67,13.75-.09,27.32-3.03,40.06-8.62,1.93-.92,3.58,1.38,1.65,2.84-11.74,9.08-28.6,13.94-43.09,13.94ZM130.93,101.84c-1.47-1.93-9.99-.92-13.84-.46-1.19.09-1.38-.92-.28-1.65,6.78-4.86,17.88-3.48,19.16-1.83s-.37,12.93-6.69,18.34c-1.01.83-1.93.37-1.47-.73,1.38-3.58,4.58-11.74,3.12-13.66h0ZM326.4,89.19c1.19-.83,1.83-2.2,1.83-3.58,0-.92-.37-1.93-1.01-2.57-1.1-.92-2.48-1.56-3.85-1.93l-5.78-2.11c-5.04-1.74-7.52-4.86-7.52-9.08-.09-2.66,1.19-5.23,3.39-6.88,2.57-1.83,5.78-2.75,8.98-2.57,2.93,0,5.87.55,8.62,1.47.46.09.83.37,1.19.64.28.37.37.83.37,1.28v1.74c0,.73-.28,1.19-.92,1.19-.55,0-1.1-.18-1.56-.37-2.38-.64-4.86-1.01-7.33-1.01-4.31,0-6.51,1.38-6.51,4.22-.09,1.01.37,2.02,1.1,2.66,1.28.92,2.75,1.65,4.31,2.11l5.41,1.93c2.11.73,4.13,2.02,5.68,3.58,1.19,1.47,1.83,3.39,1.83,5.32.09,2.84-1.19,5.59-3.58,7.33-2.75,1.93-6.14,2.93-9.63,2.75-3.48.09-6.97-.55-10.27-1.83-.46-.18-.83-.37-1.1-.73-.18-.37-.37-.83-.28-1.28v-1.83c0-.73.28-1.19.83-1.19.55.09,1.19.18,1.74.37,3.03.92,6.14,1.38,9.26,1.38,1.47.37,3.3-.09,4.77-1.01h0ZM296.51,61.78c-.09-.64.37-1.28,1.01-1.38h4.13c.64-.09,1.19.37,1.28,1.01h0v31.63c.09.64-.37,1.28-1.01,1.38h-3.03c-.37,0-.73-.09-1.01-.28-.28-.28-.46-.64-.55-1.01l-.46-2.38c-3.58,2.93-7.98,4.49-12.65,4.68-2.66.18-5.32-.83-7.24-2.66-1.74-2.11-2.66-4.86-2.48-7.61v-23.38c-.09-.64.37-1.28,1.01-1.38h4.13c.64-.09,1.19.37,1.28,1.01v21.64c-.18,1.93.37,3.76,1.38,5.32,1.1,1.28,2.75,1.93,4.4,1.74,3.39-.09,6.78-1.19,9.53-3.21l.28-25.12h0ZM261.03,94.51c-.64.09-1.28-.37-1.38-1.01h0v-22.1c.09-1.74-.28-3.48-1.28-4.95-1.01-1.1-2.48-1.74-4.03-1.56-3.48.09-6.88,1.1-9.81,3.03v25.3c.09.64-.37,1.28-1.01,1.38h-4.31c-.64.09-1.28-.37-1.38-1.01h0v-22.1c.09-1.74-.28-3.48-1.28-4.95-1.01-1.1-2.48-1.74-4.03-1.56-3.48,0-6.88,1.01-9.72,2.93v25.3c.09.64-.37,1.28-1.01,1.38h-4.31c-.64.09-1.28-.37-1.28-1.01v-31.63c-.09-.64.37-1.19,1.01-1.38h3.3c.37,0,.73.09,1.01.28.28.28.46.64.55,1.01l.37,2.11c3.58-2.75,7.98-4.22,12.47-4.4,4.13,0,6.88,1.56,8.43,4.77,3.76-2.93,8.34-4.58,13.2-4.77,2.57-.18,5.13.83,7.06,2.57,1.74,2.11,2.66,4.77,2.48,7.43v23.56c.09.64-.37,1.28-1.01,1.38h-4.03ZM362.98,68.75c-1.65,1.83-2.48,4.86-2.48,8.98v.83c0,4.03.83,6.97,2.48,8.8,2.11,2.02,4.95,3.12,7.79,2.84,2.02,0,4.03-.37,5.96-.92.37-.09.64-.18,1.01-.18.55,0,.83.46.83,1.28v1.74c0,.46-.09.92-.28,1.28-.28.37-.64.55-1.1.73-2.38,1.01-4.95,1.47-7.52,1.38-5.23,0-9.17-1.47-11.92-4.49-2.75-2.93-4.13-7.24-4.13-12.93s1.38-9.9,4.22-13.02c3.21-3.21,7.52-4.86,12.01-4.58,2.38,0,4.77.46,6.97,1.28.37.09.73.37,1.01.64.18.37.37.83.28,1.38v1.74c0,.92-.28,1.28-.83,1.28-.37,0-.73-.09-1.1-.18-1.74-.55-3.67-.83-5.5-.83-3.39.09-6.05,1.1-7.7,2.93h0ZM346.02,62.33c.64-.09,1.19.37,1.28,1.01v30.8c.09.64-.37,1.19-1.01,1.28h-4.22c-.64.09-1.19-.37-1.28-1.01h0v-30.8c-.09-.64.37-1.19.92-1.28h4.31ZM347.12,49.59c1.47,1.74,1.47,4.31,0,6.05-1.74,1.47-4.31,1.47-6.05,0-1.47-1.74-1.47-4.31,0-6.05,1.74-1.47,4.31-1.47,6.05,0Z"/>
    </g>
  </g>
</svg>