<?xml version="1.0" encoding="UTF-8"?>
<svg id="Layer_2" data-name="Layer 2" xmlns="http://www.w3.org/2000/svg" viewBox="0 0 497.3 107.75">
  <defs>
    <style>
      .cls-1, .cls-2 {
        fill: #fff;
        stroke-width: 0px;
      }

      .cls-2 {
        fill-rule: evenodd;
      }
    </style>
  </defs>
  <g id="Apple_Music" data-name="Apple Music">
    <g id="Apple_Music-2" data-name="Apple Music">
      <path class="cls-1" d="M101.21,33.35v-3.62c0-1.01-.02-2.03-.05-3.06-.06-2.22-.19-4.46-.58-6.65-.37-2.2-1.08-4.33-2.08-6.32-2.04-4.01-5.29-7.26-9.3-9.29-2-1.01-4.12-1.71-6.32-2.09-2.19-.39-4.43-.51-6.65-.58-1.01-.03-2.04-.03-3.06-.05H28.04c-1.01,0-2.03.02-3.06.05-2.2.06-4.46.19-6.65.58-2.2.39-4.33,1.08-6.32,2.09-4.01,2.04-7.26,5.29-9.3,9.29-1,2-1.71,4.12-2.08,6.32C.24,22.22.1,24.45.05,26.66c-.03,1.01-.03,2.03-.05,3.06v45.14c0,1.01.02,2.04.05,3.06.06,2.22.19,4.46.58,6.65.37,2.2,1.08,4.33,2.08,6.32,2.04,4.01,5.29,7.26,9.3,9.3,2,1,4.12,1.71,6.32,2.08,2.19.4,4.43.53,6.65.58,1.01.03,2.03.03,3.06.05h45.14c1.01,0,2.04-.02,3.06-.05,2.22-.06,4.46-.19,6.65-.58,2.2-.37,4.33-1.08,6.32-2.08,4.01-2.04,7.26-5.29,9.3-9.3,1-2,1.71-4.12,2.09-6.32.39-2.19.53-4.43.58-6.65.03-1.01.03-2.04.05-3.06v-3.62l-.02-37.88ZM74.1,67.51c0,1.29-.02,2.45-.29,3.73-.26,1.26-.76,2.43-1.48,3.48-.72,1.05-1.67,1.92-2.77,2.56-1.08.63-2.27,1.06-3.51,1.29-2.33.47-3.93.58-5.42.27-1.37-.26-2.62-.9-3.65-1.85-.06-.06-.13-.11-.19-.18-3.12-3.01-3.22-8-.21-11.12.84-.87,1.88-1.56,3.28-2.11,1.46-.58,3.09-.92,5.57-1.42l1.96-.4c.85-.18,1.58-.39,2.19-1.13.61-.74.61-1.63.61-2.51v-22.31c0-1.69-.77-2.16-2.4-1.85-1.17.24-26.18,5.28-26.18,5.28-1.4.35-1.9.8-1.9,2.56v32.67c.02,1.26-.1,2.51-.34,3.73-.24,1.26-.74,2.43-1.46,3.48-.72,1.05-1.67,1.92-2.77,2.56-1.08.63-2.27,1.08-3.51,1.3-2.33.47-3.93.58-5.42.27-1.37-.27-2.62-.92-3.65-1.87-3.23-3.01-3.41-8.06-.4-11.3.84-.87,1.88-1.56,3.28-2.11,1.46-.58,3.09-.92,5.57-1.42l1.96-.4c.85-.18,1.59-.4,2.19-1.13.6-.72.66-1.58.66-2.46V27.48c0-.34.02-.68.06-1.01.13-.79.43-1.46,1.01-1.95.53-.42,1.17-.71,1.87-.84h.02l30.1-6.07c.27-.06,2.45-.45,2.69-.47,1.63-.13,2.54.93,2.54,2.67v47.69Z"/>
      <path class="cls-2" d="M140.18,45.84l-17.95,49.91h8.05l4.51-13.48h18.92l4.59,13.48h8.13l-17.91-49.91h-8.33ZM144.16,54.13h.2l7.41,21.89h-15.01l7.41-21.89ZM197.49,77.56c0-7.37-3.78-12.2-9.58-12.2s-9.5,4.91-9.5,12.2,3.82,12.24,9.5,12.24,9.58-4.83,9.58-12.24M205.14,77.56c0,11.27-6.04,18.51-15.09,18.51-5.19,0-9.26-2.29-11.43-6.32h-.16v17.99h-7.45v-48.38h7.24v6.04h.12c2.01-3.9,6.44-6.44,11.51-6.44,9.22,0,15.29,7.33,15.29,18.59M237.34,77.56c0-7.37-3.78-12.2-9.58-12.2s-9.5,4.91-9.5,12.2,3.82,12.24,9.5,12.24,9.58-4.83,9.58-12.24M244.99,77.56c0,11.27-6.04,18.51-15.13,18.51-5.15,0-9.26-2.29-11.39-6.32h-.16v17.99h-7.45v-48.38h7.2v6.04h.12c2.09-3.9,6.48-6.44,11.55-6.44,9.18,0,15.29,7.33,15.29,18.59M250.94,95.71h7.49v-49.87h-7.49v49.87ZM271.99,74.18h18.11c-.16-5.55-3.74-9.22-8.85-9.22s-8.85,3.74-9.26,9.26v-.04ZM297.11,85.05c-.97,6.6-7.41,11.11-15.58,11.11-10.55,0-17.11-7.08-17.11-18.43s6.6-18.8,16.78-18.8,16.34,6.92,16.34,17.91v2.58h-25.6v.44c0,6.24,3.9,10.3,9.74,10.3,4.15,0,7.37-1.97,8.37-5.11h7.04ZM361.67,95.71v-36.71h-.2l-15.01,36.34h-5.72l-15.01-36.34h-.24v36.71h-7v-49.87h8.89l16.1,39.36h.28l16.06-39.36h8.94v49.91l-7.08-.04ZM408.31,95.71h-7.08v-6.24h-.16c-2.09,4.35-5.72,6.64-11.27,6.64-7.85,0-12.68-5.11-12.68-13.44v-23.3h7.45v21.85c0,5.55,2.62,8.45,7.73,8.45,5.39,0,8.61-3.7,8.61-9.38v-20.93h7.45v36.34h-.04ZM429.48,58.96c8.05,0,13.81,4.43,13.97,10.87h-7c-.28-3.22-3.02-5.19-7.16-5.19s-6.72,1.89-6.72,4.71c0,2.17,1.81,3.62,5.55,4.55l6.12,1.45c7.28,1.73,10.06,4.43,10.06,9.78,0,6.56-6.24,11.03-15.05,11.03s-14.29-4.39-14.89-11.03h7.41c.52,3.5,3.3,5.35,7.81,5.35s7.24-1.81,7.24-4.71c0-2.25-1.37-3.46-5.19-4.43l-6.44-1.61c-6.56-1.57-9.86-4.91-9.86-9.98,0-6.44,5.76-10.79,14.17-10.79M450.65,95.71h7.45v-36.34h-7.45v36.34ZM450.05,49.83c0-2.41,1.93-4.31,4.31-4.31s4.27,1.91,4.27,4.27-1.91,4.27-4.27,4.27-4.31-1.89-4.31-4.27v.04ZM490.14,71.88c-.68-3.86-3.66-6.72-8.57-6.72-5.67,0-9.5,4.83-9.5,12.4s3.82,12.4,9.58,12.4c4.63,0,7.65-2.33,8.45-6.52h7.2c-.8,7.65-6.92,12.72-15.7,12.72-10.34,0-17.11-7.08-17.11-18.59s6.76-18.63,17.02-18.63c9.26,0,15.09,5.88,15.7,12.96h-7.08Z"/>
      <g>
        <path class="cls-1" d="M121.81,5.32h3.94v21.97h11.81v3.39h-15.75V5.32Z"/>
        <path class="cls-1" d="M141.76,7.16c0-1.21.98-2.2,2.21-2.2s2.21.98,2.21,2.2-.97,2.18-2.21,2.18-2.21-.98-2.21-2.18ZM142.08,12.19h3.8v18.49h-3.8V12.19Z"/>
        <path class="cls-1" d="M150.44,25.39l-.02-.16h3.76l.04.18c.35,1.71,1.62,2.71,3.96,2.71s3.66-.95,3.66-2.44v-.02c0-1.2-.67-1.88-2.65-2.36l-3.02-.69c-3.52-.81-5.26-2.5-5.26-5.19v-.02c0-3.3,2.88-5.57,7.14-5.57s7.01,2.44,7.21,5.59l.02.21h-3.57l-.02-.12c-.23-1.62-1.49-2.74-3.64-2.74s-3.32.97-3.32,2.44v.02c0,1.14.76,1.92,2.74,2.39l3.01.69c3.78.88,5.22,2.37,5.22,5.03v.02c0,3.38-3.16,5.7-7.52,5.7-4.62,0-7.33-2.29-7.72-5.66Z"/>
        <path class="cls-1" d="M171.13,25.81v-10.6h-2.65v-3.02h2.65v-4.82h3.88v4.82h3.46v3.02h-3.46v10.37c0,1.88.84,2.44,2.44,2.44.4,0,.74-.04,1.02-.07v2.94c-.44.07-1.16.16-1.93.16-3.66,0-5.41-1.55-5.41-5.24Z"/>
        <path class="cls-1" d="M181.78,21.51v-.02c0-5.78,3.34-9.65,8.53-9.65s8.37,3.73,8.37,9.28v1.28h-13.1c.07,3.5,1.99,5.54,5.01,5.54,2.25,0,3.74-1.16,4.22-2.55l.05-.14h3.6l-.04.19c-.6,2.94-3.45,5.61-7.93,5.61-5.43,0-8.72-3.71-8.72-9.54ZM185.63,19.71h9.28c-.32-3.2-2.11-4.76-4.59-4.76s-4.36,1.67-4.69,4.76Z"/>
        <path class="cls-1" d="M203.05,12.19h3.8v2.79h.09c.97-1.88,2.87-3.15,5.66-3.15,4.06,0,6.4,2.62,6.4,6.87v11.97h-3.81v-11.25c0-2.78-1.3-4.34-3.94-4.34s-4.39,1.93-4.39,4.82v10.78h-3.8V12.19Z"/>
        <path class="cls-1" d="M232,21.44v-.04c0-5.91,3.5-9.56,8.75-9.56s8.79,3.64,8.79,9.56v.04c0,5.96-3.48,9.62-8.77,9.62s-8.77-3.67-8.77-9.62ZM245.66,21.44v-.04c0-4.04-1.93-6.38-4.9-6.38s-4.87,2.34-4.87,6.38v.04c0,4.1,1.93,6.43,4.9,6.43s4.87-2.36,4.87-6.43Z"/>
        <path class="cls-1" d="M253.92,12.19h3.8v2.79h.09c.97-1.88,2.87-3.15,5.66-3.15,4.06,0,6.4,2.62,6.4,6.87v11.97h-3.81v-11.25c0-2.78-1.3-4.34-3.94-4.34s-4.39,1.93-4.39,4.82v10.78h-3.8V12.19Z"/>
      </g>
    </g>
  </g>
</svg>