<?xml version="1.0" encoding="UTF-8"?>
<svg id="Layer_2" data-name="Layer 2" xmlns="http://www.w3.org/2000/svg" viewBox="0 0 316.82 95.89">
  <defs>
    <style>
      .cls-1, .cls-2 {
        fill: #fff;
        stroke-width: 0px;
      }

      .cls-2 {
        fill-rule: evenodd;
      }
    </style>
  </defs>
  <g id="Layer_6" data-name="Layer 6">
    <g id="Deezer">
      <g>
        <path class="cls-1" d="M2.34,5.32h3.94v21.97h11.81v3.39H2.34V5.32Z"/>
        <path class="cls-1" d="M22.29,7.16c0-1.21.98-2.2,2.21-2.2s2.21.98,2.21,2.2-.97,2.18-2.21,2.18-2.21-.98-2.21-2.18ZM22.6,12.19h3.8v18.49h-3.8V12.19Z"/>
        <path class="cls-1" d="M30.97,25.39l-.02-.16h3.76l.04.18c.35,1.71,1.62,2.71,3.96,2.71s3.66-.95,3.66-2.44v-.02c0-1.2-.67-1.88-2.65-2.36l-3.02-.69c-3.52-.81-5.26-2.5-5.26-5.19v-.02c0-3.3,2.88-5.57,7.14-5.57s7.01,2.44,7.21,5.59l.02.21h-3.57l-.02-.12c-.23-1.62-1.49-2.74-3.64-2.74s-3.32.97-3.32,2.44v.02c0,1.14.76,1.92,2.74,2.39l3.01.69c3.78.88,5.22,2.37,5.22,5.03v.02c0,3.38-3.16,5.7-7.52,5.7-4.62,0-7.33-2.29-7.72-5.66Z"/>
        <path class="cls-1" d="M51.66,25.81v-10.6h-2.65v-3.02h2.65v-4.82h3.88v4.82h3.46v3.02h-3.46v10.37c0,1.88.84,2.44,2.44,2.44.4,0,.74-.04,1.02-.07v2.94c-.44.07-1.16.16-1.93.16-3.66,0-5.41-1.55-5.41-5.24Z"/>
        <path class="cls-1" d="M62.31,21.51v-.02c0-5.78,3.34-9.65,8.53-9.65s8.37,3.73,8.37,9.28v1.28h-13.1c.07,3.5,1.99,5.54,5.01,5.54,2.25,0,3.74-1.16,4.22-2.55l.05-.14h3.6l-.04.19c-.6,2.94-3.45,5.61-7.93,5.61-5.43,0-8.72-3.71-8.72-9.54ZM66.16,19.71h9.28c-.32-3.2-2.11-4.76-4.59-4.76s-4.36,1.67-4.69,4.76Z"/>
        <path class="cls-1" d="M83.58,12.19h3.8v2.79h.09c.97-1.88,2.87-3.15,5.66-3.15,4.06,0,6.4,2.62,6.4,6.87v11.97h-3.81v-11.25c0-2.78-1.3-4.34-3.94-4.34s-4.39,1.93-4.39,4.82v10.78h-3.8V12.19Z"/>
        <path class="cls-1" d="M112.53,21.44v-.04c0-5.91,3.5-9.56,8.75-9.56s8.79,3.64,8.79,9.56v.04c0,5.96-3.48,9.62-8.77,9.62s-8.77-3.67-8.77-9.62ZM126.18,21.44v-.04c0-4.04-1.93-6.38-4.9-6.38s-4.87,2.34-4.87,6.38v.04c0,4.1,1.93,6.43,4.9,6.43s4.87-2.36,4.87-6.43Z"/>
        <path class="cls-1" d="M134.44,12.19h3.8v2.79h.09c.97-1.88,2.87-3.15,5.66-3.15,4.06,0,6.4,2.62,6.4,6.87v11.97h-3.81v-11.25c0-2.78-1.3-4.34-3.94-4.34s-4.39,1.93-4.39,4.82v10.78h-3.8V12.19Z"/>
      </g>
      <g>
        <g>
          <path class="cls-2" d="M51.3,55.16h13.48v7.88h-13.48v-7.88Z"/>
          <path class="cls-2" d="M51.3,66.04h13.48v7.88h-13.48v-7.88Z"/>
          <path class="cls-2" d="M51.3,77.01h13.48v7.88h-13.48v-7.88Z"/>
          <path class="cls-2" d="M2.34,87.97h13.48v7.88H2.34v-7.88Z"/>
          <path class="cls-2" d="M18.66,87.97h13.48v7.88h-13.48v-7.88Z"/>
          <path class="cls-2" d="M34.98,87.97h13.48v7.88h-13.48v-7.88Z"/>
          <path class="cls-2" d="M51.3,87.97h13.48v7.88h-13.48v-7.88Z"/>
          <path class="cls-2" d="M34.98,77.01h13.48v7.88h-13.48v-7.88Z"/>
          <path class="cls-2" d="M18.66,77.01h13.48v7.88h-13.48v-7.88Z"/>
          <path class="cls-2" d="M18.66,66.04h13.48v7.88h-13.48v-7.88Z"/>
        </g>
        <path class="cls-1" d="M75.98,75.67c0,12.59,7.79,20.14,19.32,20.14,5.77,0,10.64-1.62,13.32-5.85v5.85h10.56v-60.09h-10.96v25.58c-2.52-4.22-7.06-6.09-12.83-6.09-11.29-.08-19.41,7.63-19.41,20.46ZM108.54,75.67c0,7.23-4.87,11.69-10.8,11.69s-10.8-4.47-10.8-11.69,4.71-11.94,10.8-11.94,10.8,4.63,10.8,11.94ZM153.2,80.3c-1.22,4.63-4.47,6.98-9.42,6.98-5.85,0-10.64-3.49-10.72-9.74h27.61c.32-1.54.49-3.17.49-4.95,0-11.21-7.63-17.46-18.84-17.46-12.02,0-20.22,8.53-20.22,20.14,0,12.91,9.09,20.62,21.68,20.62,9.5,0,15.91-3.98,18.76-11.85l-9.34-3.74ZM133.07,70.23c1.06-4.47,4.79-7.15,9.26-7.15,4.87,0,8.2,2.68,8.2,6.82l-.08.32h-17.38ZM193.8,80.3c-1.22,4.63-4.47,6.98-9.42,6.98-5.85,0-10.64-3.49-10.72-9.74h27.61c.32-1.54.49-3.17.49-4.95,0-11.21-7.63-17.46-18.84-17.46-12.02,0-20.22,8.53-20.22,20.14,0,12.91,9.09,20.62,21.68,20.62,9.5,0,15.91-3.98,18.76-11.85l-9.34-3.74ZM173.66,70.23c1.06-4.47,4.79-7.15,9.26-7.15,4.87,0,8.2,2.68,8.2,6.82l-.08.32h-17.38ZM240.33,95.89v-9.91h-22.98l22.33-21.76v-9.09h-35.4v9.42h21.6l-22.33,21.84v9.42l36.78.08h0ZM272.32,80.3c-1.22,4.63-4.47,6.98-9.42,6.98-5.85,0-10.64-3.49-10.72-9.74h27.61c.32-1.54.49-3.17.49-4.95,0-11.21-7.63-17.46-18.84-17.46-12.02,0-20.22,8.53-20.22,20.14,0,12.91,9.09,20.62,21.68,20.62,9.5,0,15.91-3.98,18.76-11.85l-9.34-3.74ZM252.18,70.23c1.06-4.47,4.79-7.15,9.26-7.15,4.87,0,8.2,2.68,8.2,6.82l-.08.32h-17.38ZM306.18,69.18v1.14h10.64v-3.09c0-6.98-4.38-12.02-11.69-12.02-4.71,0-8.04,2.27-9.74,6.09v-6.09h-11.04v40.68h11.04v-26.23c0-4.14,2.27-6.41,5.68-6.41,3.17,0,5.12,2.92,5.12,5.93Z"/>
      </g>
    </g>
  </g>
</svg>