<?xml version="1.0" encoding="UTF-8"?>
<svg id="Layer_2" data-name="Layer 2" xmlns="http://www.w3.org/2000/svg" viewBox="0 0 300.05 300.84">
  <defs>
    <style>
      .cls-1 {
        fill: #fff;
        stroke-width: 0px;
      }
    </style>
  </defs>
  <g id="Evelynn">
    <g>
      <path class="cls-1" d="M141.04,235.99c14.35-20.23-3.39-52.63-33.39-70.84-5.71-3.47-11.51-6.99-17.04-10.77l11.71-11.75-11.72-16.02-15.38,15.49c-10.39-10.06-17.64-22.43-17.71-39.37-.14-30.98,41.17-89.78,81.66-102.73C92.51.83,28.76,9.92,0,39.05c11.02-7.01,33.36-12.74,38.96-6.95C22.48,44.08,3.96,66.99,4.73,94.43c1.01,35.57,37.99,66.52,74.65,76.66,32.94,9.11,62.26,32.83,61.66,64.9Z"/>
      <path class="cls-1" d="M105.55,123.94c2.65-5.94,11.03-17.38,22.13-17,8.36.29,12.67,32.49,12.7,45.8l9.65,6.8,9.65-6.8c.03-13.31,4.34-45.51,12.7-45.8,11.1-.38,19.48,11.05,22.13,17,2.53-3.21,6.17-8.4,5.67-11.64-5.45-35.16-35.06-61.44-50.15-81.95-15.1,20.51-44.7,46.79-50.15,81.95-.5,3.24,3.15,8.42,5.67,11.64ZM150.03,48.38v92.88c-.5-12.81-3.92-45.03-16.74-45.73-6.64-.36-12.03,2.94-18.12,7.5,2.64-19.19,18.42-36.96,34.86-54.65Z"/>
      <path class="cls-1" d="M261.1,32.1c5.59-5.78,27.93-.05,38.96,6.95C271.29,9.92,207.55.83,160.9,0c40.48,12.95,81.8,71.76,81.66,102.73-.08,16.95-7.33,29.31-17.71,39.37l-15.38-15.49-11.72,16.02,11.71,11.75c-5.53,3.78-11.33,7.3-17.04,10.77-30,18.21-47.74,50.61-33.39,70.84-.6-32.07,28.72-55.79,61.66-64.9,36.66-10.14,73.64-41.09,74.65-76.66.78-27.43-17.75-50.35-34.22-62.33Z"/>
      <path class="cls-1" d="M261.02,165.94c-7.21,4.73-16.36,9.4-26.04,14.06l3.9,3.91-88.86,89.2-88.86-89.2,3.9-3.91c-9.68-4.65-18.82-9.33-26.04-14.06l4.78,7.78-10.12,10.19,116.33,116.93,116.33-116.93-10.12-10.19,4.78-7.78Z"/>
    </g>
  </g>
</svg>