<?xml version="1.0" encoding="UTF-8"?>
<svg id="Layer_2" data-name="Layer 2" xmlns="http://www.w3.org/2000/svg" viewBox="0 0 304.26 313.7">
  <defs>
    <style>
      .cls-1 {
        fill: #fff;
        stroke-width: 0px;
      }
    </style>
  </defs>
  <g id="Kai_sa" data-name="Kai&amp;apos;sa">
    <g>
      <polygon class="cls-1" points="72.62 72.63 70.61 33.16 47.17 0 48.07 42.98 72.62 72.63"/>
      <path class="cls-1" d="M126.34,232.12c-15.9-22.17-26.06-43.71-33.36-65.49l24.86-23.96,34.29,101.81,34.29-101.81,24.86,23.96c-7.3,21.78-17.46,43.32-33.36,65.49l81.26-65.8c28.17-48.17,41.68-103.92,45.08-153.28-24.04,60.93-54.5,88.85-81.66,110.92-1.63,7.63-3.39,15.17-5.36,22.65l-23.82-24.74,17.56-52.13-58.85-59.79-58.85,59.79,17.56,52.13-23.82,24.74c-1.98-7.48-3.73-15.02-5.36-22.65C54.5,101.89,24.04,73.97,0,13.04c3.4,49.36,16.91,105.11,45.08,153.28l81.26,65.8ZM229.44,134.98c21.14-19.42,40.46-42.74,58.13-69.61-16.72,46.14-37.9,85.84-65.93,115.69l7.8-46.08ZM152.13,193.19l-37.02-110.11,37.02,22.21v87.9ZM152.13,33.9v62.91l-39.68-23.53,39.68-39.39ZM74.82,134.98l7.8,46.08c-28.02-29.85-49.21-69.56-65.93-115.69,17.67,26.87,36.99,50.19,58.13,69.61Z"/>
      <polygon class="cls-1" points="257.09 0 233.65 33.16 231.65 72.63 256.19 42.98 257.09 0"/>
      <polygon class="cls-1" points="264.48 173.68 152.13 286.59 39.79 173.68 44.83 187.46 35.53 197.2 152.13 313.7 268.73 197.2 259.44 187.46 264.48 173.68"/>
    </g>
  </g>
</svg>