<svg xmlns="http://www.w3.org/2000/svg" id="Layer_2" data-name="Layer 2" viewBox="0 0 304.26 313.7"><defs><style>.cls-1{fill:#fff;stroke-width:0}</style></defs><g id="Kai_sa" data-name="Kai&amp;apos;sa"><path d="m72.62 72.63-2.01-39.47L47.17 0l.9 42.98 24.55 29.65z" class="cls-1"/><path d="M126.34 232.12c-15.9-22.17-26.06-43.71-33.36-65.49l24.86-23.96 34.29 101.81 34.29-101.81 24.86 23.96c-7.3 21.78-17.46 43.32-33.36 65.49l81.26-65.8c28.17-48.17 41.68-103.92 45.08-153.28-24.04 60.93-54.5 88.85-81.66 110.92-1.63 7.63-3.39 15.17-5.36 22.65l-23.82-24.74 17.56-52.13-58.85-59.79-58.85 59.79 17.56 52.13-23.82 24.74c-1.98-7.48-3.73-15.02-5.36-22.65C54.5 101.89 24.04 73.97 0 13.04 3.4 62.4 16.91 118.15 45.08 166.32l81.26 65.8Zm103.1-97.14c21.14-19.42 40.46-42.74 58.13-69.61-16.72 46.14-37.9 85.84-65.93 115.69l7.8-46.08Zm-77.31 58.21L115.11 83.08l37.02 22.21v87.9Zm0-159.29v62.91l-39.68-23.53 39.68-39.39ZM74.82 134.98l7.8 46.08C54.6 151.21 33.41 111.5 16.69 65.37c17.67 26.87 36.99 50.19 58.13 69.61Z" class="cls-1"/><path d="m257.09 0-23.44 33.16-2 39.47 24.54-29.65.9-42.98zM264.48 173.68 152.13 286.59 39.79 173.68l5.04 13.78-9.3 9.74 116.6 116.5 116.6-116.5-9.29-9.74 5.04-13.78z" class="cls-1"/></g></svg>