<?xml version="1.0" encoding="UTF-8"?>
<svg id="Layer_2" data-name="Layer 2" xmlns="http://www.w3.org/2000/svg" viewBox="0 0 872 181.95">
  <defs>
    <style>
      .cls-1 {
        fill: #fff;
        stroke-width: 0px;
      }
    </style>
  </defs>
    <g id="Logo">
        <polygon class="cls-1" points="26.46 77.3 0 93.3 0 177.8 40.46 177.8 288.96 13.3 241.46 13.3 26.46 153.3 26.46 77.3"/>
        <polygon class="cls-1" points="185.46 98.3 160.46 114.3 255.46 177.8 305.46 177.8 185.46 98.3"/>
        <polygon class="cls-1" points="604.96 177.8 653.96 177.8 845.46 50.3 845.46 140.9 812.06 125.9 787.46 142.9 872 181.95 872 0 604.96 177.8"/>
        <path class="cls-1" d="M363.46,80.8l-26,17.5v76.5c0,1.66,1.34,3,3,3h141.5c85.87,0,132-22.06,132-82.25,0-56.02-42.35-82.25-132-82.25l-34,25h34c87.76,0,106,25.25,106,57.25,0,60.77-77.29,57.75-106,57.75h-118.5v-72.5Z"/>
    </g>
</svg>