<svg xmlns="http://www.w3.org/2000/svg" id="Layer_2" data-name="Layer 2" viewBox="0 0 604.32 630.6"><defs><style>.cls-1{fill:#1d1b26;stroke-width:0}</style></defs><g id="Kai_sa" data-name="Kai&amp;apos;sa"><path d="m372.67 389.52-2-39.47-23.44-33.16.9 42.98 24.54 29.65z" class="cls-1"/><path d="M426.39 549.01c-15.9-22.17-26.06-43.71-33.36-65.49l24.86-23.96 34.29 101.81 34.29-101.81 24.86 23.96c-7.3 21.78-17.46 43.32-33.36 65.49l81.26-65.8c28.17-48.17 41.68-103.92 45.08-153.28-24.04 60.93-54.5 88.85-81.66 110.92-1.63 7.63-3.39 15.17-5.36 22.65l-23.82-24.74 17.56-52.13-58.85-59.79-58.85 59.79 17.56 52.13-23.82 24.74c-1.98-7.48-3.73-15.02-5.36-22.65-27.16-22.07-57.61-49.99-81.66-110.92 3.4 49.36 16.91 105.11 45.08 153.28l81.26 65.8Zm103.11-97.13c21.14-19.42 40.46-42.74 58.13-69.61-16.72 46.14-37.9 85.84-65.93 115.69l7.8-46.08Zm-77.31 58.2-37.02-110.11 37.02 22.21v87.9Zm0-159.29v62.91l-39.68-23.53 39.68-39.39Zm-77.31 101.09 7.8 46.08c-28.02-29.85-49.21-69.56-65.93-115.69 17.67 26.87 36.99 50.19 58.13 69.61Z" class="cls-1"/><path d="m557.15 316.89-23.45 33.16-2 39.47 24.54-29.65.91-42.98zM564.53 490.57 452.19 603.49 339.84 490.57l5.04 13.78-9.3 9.75 116.61 116.5 116.6-116.5-9.3-9.75 5.04-13.78z" class="cls-1"/></g><g id="Evelynn"><path d="M141.04 559.31c14.35-20.23-3.39-52.63-33.39-70.84-5.71-3.47-11.51-6.99-17.04-10.77l11.71-11.75-11.72-16.02-15.38 15.49c-10.39-10.06-17.64-22.43-17.71-39.37-.14-30.98 41.17-89.78 81.66-102.73-46.65.83-110.39 9.92-139.16 39.05 11.02-7.01 33.36-12.74 38.96-6.95-16.48 11.98-35 34.89-34.22 62.33 1.01 35.57 37.99 66.52 74.65 76.66 32.94 9.11 62.26 32.83 61.66 64.9Z" class="cls-1"/><path d="M105.55 447.26c2.65-5.94 11.03-17.38 22.13-17 8.36.29 12.67 32.49 12.7 45.8l9.65 6.8 9.65-6.8c.03-13.31 4.34-45.51 12.7-45.8 11.1-.38 19.48 11.05 22.13 17 2.53-3.21 6.17-8.4 5.67-11.64-5.45-35.16-35.06-61.44-50.15-81.95-15.1 20.51-44.7 46.79-50.15 81.95-.5 3.24 3.15 8.42 5.67 11.64Zm44.48-75.56v92.88c-.5-12.81-3.92-45.03-16.74-45.73-6.64-.36-12.03 2.94-18.12 7.5 2.64-19.19 18.42-36.96 34.86-54.65Z" class="cls-1"/><path d="M261.1 355.42c5.59-5.78 27.93-.05 38.96 6.95-28.76-29.13-92.51-38.22-139.16-39.05 40.48 12.95 81.8 71.76 81.66 102.73-.08 16.95-7.33 29.31-17.71 39.37l-15.38-15.49-11.72 16.02 11.71 11.75c-5.53 3.78-11.33 7.3-17.04 10.77-30 18.21-47.74 50.61-33.39 70.84-.6-32.07 28.72-55.79 61.66-64.9 36.66-10.14 73.64-41.09 74.65-76.66.78-27.43-17.75-50.35-34.22-62.33Z" class="cls-1"/><path d="M261.02 489.26c-7.21 4.73-16.36 9.4-26.04 14.06l3.9 3.91-88.86 89.2-88.86-89.2 3.9-3.91c-9.68-4.65-18.82-9.33-26.04-14.06l4.78 7.78-10.12 10.19 116.33 116.93 116.33-116.93-10.12-10.19 4.78-7.78Z" class="cls-1"/></g><g id="Akali"><path d="m380.15 163.98-70.01-75.99 80.44 122.9-10.43-46.91zM360.02 208.36l5.3-5.89-25.96-19.61 6 12.45-13.14 13.2 108.82 108.38-7.93-34.98-73.09-73.55zM481.82 132.9l-14.96-18.78 14.96-6.91-13.41-9.18-7.12-58.09 10.01-10.11L449.62 0l-21.67 29.82 10.01 10.11-7.12 58.09-13.41 9.18 14.96 6.91-14.96 18.78-41.38-30.96 73.57 198.85 73.57-198.85-41.38 30.96Zm-32.2 115.82-29.79-89.87 29.79-30.8v120.67Zm0-214.86-6.58-6.85 6.58-10.97 6.58 10.97-6.58 6.85ZM508.66 210.89l80.45-122.9-70.01 75.99-10.44 46.91zM559.89 182.86l-25.96 19.61 5.29 5.89-73.08 73.55-7.94 34.98 108.83-108.38-13.14-13.2 6-12.45z" class="cls-1"/></g><g id="Ahri"><path d="M133.92 230.25c-6.77-39.74-93.5-87.58-90.85-134.7C46.75 30.47 109.52 34.67 100.22 0 92.12 32.74 3.69 31.53.07 115.73c-1.52 35.41 22.46 61.74 39.62 73.69 27.25 18.97 76.93 12.42 94.23 40.83Z" class="cls-1"/><path d="M66.96 136.39c-7.7-63.3 36.28-97.61 68.89-116.7-56.05 15.7-89.4 62.58-68.89 116.7ZM103.38 123.82c-1.7 2.42-22.93 23.06-23.72 24.21-.68.99 12.58 14.43 13.67 14.43s22.47-21.68 22.47-22.93-11.84-16.53-12.42-15.71ZM93.25 97.7c27.16 17.42 45.31 51.31 61.82 92.57 16.51-41.26 34.67-75.15 61.82-92.57-7.4-19.39-22.55-34.48-34.27-34.48-7.25 0-23.93 18.43-27.56 33.95-3.63-15.52-20.31-33.95-27.56-33.95-11.71 0-26.86 15.09-34.27 34.48Zm61.82 23.44v38.66c-14.36-28.34-29.39-51.32-45.8-63.37 0 0 7.7-19.34 18.13-19.51 8.45-.13 26.36 33.02 27.66 44.21ZM147.7 243.87c1.88 0 3.3-7.18 3.3-14.72 0-31.69-22.62-51.24-22.62-51.24 18.14 24.38 15.6 65.94 19.32 65.96Z" class="cls-1"/><path d="M310.07 115.73C306.44 31.53 218.01 32.74 209.92 0c-9.3 34.67 53.47 30.47 57.14 95.56 2.66 47.11-84.08 94.95-90.85 134.7 17.3-28.41 66.98-21.87 94.23-40.83 17.17-11.95 41.15-38.28 39.62-73.69Z" class="cls-1"/><path d="M174.28 19.69c32.62 19.09 76.59 53.4 68.89 116.7 20.5-54.12-12.84-100.99-68.89-116.7ZM206.75 123.82c-.58-.82-12.42 14.46-12.42 15.71s21.39 22.93 22.47 22.93 14.35-13.45 13.67-14.43c-.79-1.14-22.02-21.79-23.72-24.21ZM155.07 286.38l-65.56-66.33-60.45-19.1 28.12 15.32 97.89 98.24 97.88-98.24 28.13-15.32-60.45 19.1-65.56 66.33z" class="cls-1"/><path d="M162.44 243.87c3.72-.02 1.18-41.58 19.32-65.96 0 0-22.62 19.55-22.62 51.24 0 7.54 1.41 14.73 3.3 14.72Z" class="cls-1"/></g></svg>