<svg xmlns="http://www.w3.org/2000/svg" id="Layer_2" data-name="Layer 2" viewBox="0 0 872 181.95"><defs><style>.cls-1{fill:#fff;stroke-width:0}</style></defs><g id="Logo"><path d="M26.46 77.3 0 93.3v84.5h40.46l248.5-164.5h-47.5l-215 140v-76zM185.46 98.3l-25 16 95 63.5h50l-120-79.5zM604.96 177.8h49l191.5-127.5v90.6l-33.4-15-24.6 17L872 181.95V0L604.96 177.8zM363.46 80.8l-26 17.5v76.5c0 1.66 1.34 3 3 3h141.5c85.87 0 132-22.06 132-82.25 0-56.02-42.35-82.25-132-82.25l-34 25h34c87.76 0 106 25.25 106 57.25 0 60.77-77.29 57.75-106 57.75h-118.5V80.8Z" class="cls-1"/></g></svg>