<?xml version="1.0" encoding="UTF-8"?>
<svg id="Layer_2" data-name="Layer 2" xmlns="http://www.w3.org/2000/svg" viewBox="0 0 1577.69 468.99">
  <defs>
    <style>
      .cls-1 {
        fill: #1b1924;
        stroke-width: 0px;
      }
    </style>
  </defs>
  <g id="Layer_1-2" data-name="Layer 1">
    <g>
      <path class="cls-1" d="M680.6,248.48c-40.61.57-75,8.12-74.43,49.49v6.23c-.57,41.56,33.81,49.12,74.43,49.68,40.43-.57,74.81-8.12,74.24-49.68v-6.23c.57-41.37-33.81-48.93-74.24-49.49Z"/>
      <polygon class="cls-1" points="1191.4 105.25 1214.6 105.25 1203.03 80.15 1191.4 105.25"/>
      <polygon class="cls-1" points="365.72 80.15 354.09 105.25 377.29 105.25 365.72 80.15"/>
      <path class="cls-1" d="M0,0v468.99h1577.69V0H0ZM1397.31,55.55h111.27v26.94h-39.17v58.05h-32.94v-58.05h-39.17v-26.94ZM1270.43,55.42h45.33l37.09,45.02v-45.02h33v84.98h-37.09l-45.39-51.91v51.91h-32.94V55.42ZM1007.44,55.55l19.55,53.81,19.61-53.81h37.09l19.55,53.81,19.61-53.81h37.09l-37.09,84.98h-39.17l-18.55-42.49-18.55,42.49h-39.17l-37.09-84.98h37.09ZM806.07,55.55h98.89v21.75h-65.95v10.88h65.95v19.67h-65.95v10.88h65.95v21.81h-98.89V55.55ZM651.03,55.55l19.55,53.81,19.61-53.81h37.09l19.55,53.81,19.61-53.81h37.09l-37.09,84.98h-39.17l-18.55-42.49-18.55,42.49h-39.17l-37.09-84.98h37.09ZM433.12,55.42h32.94v29.02h49.48v-29.02h33v84.98h-33v-29.02h-49.48v29.02h-32.94V55.42ZM346.11,55.55h39.17l45.33,84.98h-37.09l-6.66-14.54h-42.31l-6.66,14.54h-37.09l45.33-84.98ZM199.37,55.55h98.89v21.75h-65.95v10.88h65.95v19.67h-65.95v10.88h65.95v21.81h-98.89V55.55ZM108.27,55.55l24.71,30.48,24.77-30.48h39.1l-47.4,55.96v29.02h-32.94v-29.02l-47.4-55.96h39.17ZM472.05,428.13h-98.99v-135.44l-99.17,135.44h-49.49l-99.17-135.44v135.44H26.24v-253.89h123.92l98.99,126.94,99.17-126.94h123.73v253.89ZM853.83,310.44c.38,95.96-77.83,123.73-173.23,123.92-95.59-.19-173.79-27.96-173.41-123.92v-18.51c-.38-96.15,77.83-123.73,173.41-123.92,95.59,0,173.23,27.96,173.23,123.92v18.51ZM1223.7,270.39c0,19.08-5.1,36.46-15.3,51.95-10.01,15.3-23.42,27.01-40.05,34.76l55.35,71.22h-105.41l-47.79-61.96h-88.41v61.96h-98.99v-253.89h244.63c52.33-.57,96.72,43.45,95.96,95.96ZM1224.15,125.99h-42.31l-6.66,14.54h-37.09l45.33-84.98h39.17l45.33,84.98h-37.09l-6.66-14.54ZM1551.45,239.6h-198.16v32.49h198.16v58.75h-198.16v32.49h198.16v65.17h-297.15v-253.89h297.15v64.98Z"/>
      <path class="cls-1" d="M1102.8,248.67h-120.71v43.26h120.71c6.04,0,11.14-2.08,15.3-6.23s6.42-9.44,6.42-15.3c0-12.09-9.63-21.72-21.72-21.72Z"/>
    </g>
  </g>
</svg>