<svg xmlns="http://www.w3.org/2000/svg" id="Layer_2" data-name="Layer 2" viewBox="0 0 1532.76 471.4"><defs><style>.cls-1{fill:#000;stroke-width:0}</style></defs><g id="Layer_1-2" data-name="Layer 1"><path d="M3.78 143.08H127.7l98.99 126.94 99.17-126.94h123.73v253.89H350.6V261.53l-99.17 135.44h-49.49l-99.17-135.44v135.44H3.78V143.08ZM831.37 260.77v18.51c.38 95.96-77.83 123.73-173.23 123.92-95.59-.19-173.79-27.96-173.41-123.92v-18.51c-.38-96.15 77.83-123.73 173.41-123.92 95.59 0 173.23 27.96 173.23 123.92Zm-98.99 6.04c.57-41.37-33.81-48.93-74.24-49.49-40.61.57-75 8.12-74.43 49.49v6.23c-.57 41.56 33.81 49.12 74.43 49.68 40.43-.57 74.81-8.12 74.24-49.68v-6.23ZM1105.27 143.27c52.33-.57 96.72 43.45 95.96 95.96 0 19.08-5.1 36.46-15.3 51.95-10.01 15.3-23.42 27.01-40.05 34.76l55.35 71.22h-105.41l-47.79-61.96h-88.41v61.96h-98.99V143.27h244.63Zm-145.64 74.24v43.26h120.71c6.04 0 11.14-2.08 15.3-6.23s6.42-9.44 6.42-15.3c0-12.09-9.63-21.72-21.72-21.72H959.63ZM1231.84 143.46h297.15v64.98h-198.16v32.49h198.16v58.75h-198.16v32.49h198.16v65.17h-297.15V143.45ZM110.51 55.33l24.77-30.3h39.1l-47.4 55.64v28.86H94.04V80.67l-47.4-55.64h39.17l24.71 30.3ZM176.91 25.03h98.89v21.63h-65.95v10.81h65.95v19.55h-65.95v10.81h65.95v21.69h-98.89V25.03ZM323.64 25.03h39.17l45.33 84.49h-37.09l-6.66-14.46h-42.31l-6.66 14.46h-37.09l45.33-84.49Zm7.99 49.41h23.2l-11.57-24.96-11.63 24.96ZM443.6 80.54v28.86h-32.94V24.9h32.94v28.86h49.48V24.9h33v84.49h-33V80.53H443.6ZM743.99 25.03h37.09l-37.09 84.49h-39.17l-18.55-42.25-18.55 42.25h-39.17l-37.09-84.49h37.09l19.55 53.5 19.61-53.5h37.09l19.55 53.5 19.61-53.5ZM783.61 25.03h98.89v21.63h-65.95v10.81h65.95v19.55h-65.95v10.81h65.95v21.69h-98.89V25.03ZM1100.4 25.03h37.09l-37.09 84.49h-39.17l-18.55-42.25-18.55 42.25h-39.17l-37.09-84.49h37.09l19.55 53.5 19.61-53.5h37.09l19.55 53.5 19.61-53.5ZM1160.95 25.03h39.17l45.33 84.49h-37.09l-6.66-14.46h-42.31l-6.66 14.46h-37.09l45.33-84.49Zm7.99 49.41h23.2l-11.57-24.96-11.63 24.96ZM1330.39 24.9h33v84.49h-37.09l-45.39-51.61v51.61h-32.94V24.9h45.33l37.09 44.76V24.9ZM1414.01 109.52V51.81h-39.17V25.03h111.27v26.78h-39.17v57.71H1414Z" class="cls-1"/></g></svg>