<svg xmlns="http://www.w3.org/2000/svg" id="Layer_2" data-name="Layer 2" viewBox="0 0 1999.01 284.55"><defs><style>.cls-1{fill:#d1d1f5;stroke-width:0}</style></defs><g id="Layer_4" data-name="Layer 4"><path d="M22.63 30.18h136.03c11.24 0 20.73.49 28.47 1.47 7.74.98 14.12 2.46 19.15 4.42 5.03 1.97 8.9 4.4 11.61 7.31 2.71 2.91 4.69 6.33 5.95 10.26 1.26 3.93 1.98 8.33 2.18 13.2.19 4.87.29 10.25.29 16.15s-.14 11.79-.41 16.97c-.28 5.19-1.18 9.88-2.71 14.09-1.53 4.21-3.97 7.9-7.31 11.08-3.34 3.18-8.09 5.83-14.26 7.96-6.17 2.12-13.99 3.73-23.46 4.83s-21.12 1.65-34.95 1.65H45.26v71.67H22.63V30.18Zm22.63 90.52h97.95c10.06 0 18.52-.18 25.4-.53 6.88-.35 12.55-1 17.03-1.94s7.94-2.28 10.37-4.01c2.43-1.73 4.22-4.01 5.36-6.84 1.14-2.83 1.81-6.23 2-10.2.2-3.97.29-8.7.29-14.2 0-5.11-.1-9.51-.29-13.2-.2-3.69-.87-6.8-2-9.31-1.14-2.51-2.93-4.52-5.36-6.01-2.44-1.49-5.89-2.65-10.37-3.48s-10.16-1.36-17.03-1.59c-6.88-.24-15.34-.35-25.4-.35H45.26v71.67ZM399.94 26.4c13.83 0 25.48.85 34.95 2.53 9.47 1.69 17.27 4.24 23.4 7.66 6.13 3.42 10.84 7.72 14.14 12.91 3.3 5.19 5.72 11.28 7.25 18.27 1.53 7 2.44 14.89 2.71 23.69s.41 18.55.41 29.23-.14 20.43-.41 29.23c-.28 8.8-1.18 16.7-2.71 23.69-1.53 7-3.95 13.08-7.25 18.27-3.3 5.19-8.01 9.49-14.14 12.91-6.13 3.42-13.93 5.97-23.4 7.66-9.47 1.69-21.12 2.53-34.95 2.53h-68.13c-13.83 0-25.48-.85-34.95-2.53-9.47-1.69-17.27-4.24-23.4-7.66-6.13-3.42-10.86-7.72-14.2-12.91s-5.78-11.28-7.31-18.27c-1.53-6.99-2.42-14.89-2.65-23.69-.24-8.8-.35-18.54-.35-29.23s.12-20.43.35-29.23c.24-8.8 1.12-16.7 2.65-23.69 1.53-6.99 3.97-13.08 7.31-18.27 3.34-5.19 8.07-9.49 14.2-12.91 6.13-3.42 13.93-5.97 23.4-7.66 9.47-1.69 21.12-2.53 34.95-2.53h68.13Zm0 169.74c9.98 0 18.41-.29 25.28-.88 6.88-.59 12.55-1.79 17.03-3.6s7.94-4.4 10.37-7.78c2.44-3.38 4.2-7.86 5.3-13.44 1.1-5.58 1.75-12.44 1.95-20.57.19-8.13.29-17.86.29-29.17s-.1-21.04-.29-29.17c-.2-8.13-.85-14.99-1.95-20.57s-2.87-10.06-5.3-13.44c-2.44-3.38-5.88-5.97-10.31-7.78-4.44-1.81-10.1-3.01-16.97-3.6-6.88-.59-15.34-.88-25.4-.88h-68.13c-10.06 0-18.53.29-25.4.88-6.88.59-12.55 1.79-17.03 3.6s-7.94 4.4-10.37 7.78c-2.44 3.38-4.21 7.86-5.3 13.44-1.1 5.58-1.73 12.44-1.89 20.57-.16 8.13-.24 17.86-.24 29.17s.1 21.04.29 29.17c.2 8.13.84 14.99 1.94 20.57s2.85 10.06 5.25 13.44c2.4 3.38 5.83 5.97 10.31 7.78 4.48 1.81 10.16 3.01 17.03 3.6 6.88.59 15.34.88 25.4.88h68.13ZM520.53 30.18h136.03c11.24 0 20.73.49 28.47 1.47 7.74.98 14.12 2.46 19.15 4.42 5.03 1.97 8.9 4.4 11.61 7.31 2.71 2.91 4.69 6.33 5.95 10.26 1.26 3.93 1.98 8.33 2.18 13.2.2 4.87.29 10.25.29 16.15s-.14 11.79-.41 16.97c-.28 5.19-1.18 9.88-2.71 14.09-1.53 4.21-3.97 7.9-7.31 11.08-3.34 3.18-8.09 5.83-14.26 7.96-6.17 2.12-13.99 3.73-23.46 4.83s-21.12 1.65-34.95 1.65h-97.95v71.67h-22.63V30.18Zm22.63 90.52h97.95c10.06 0 18.52-.18 25.4-.53 6.88-.35 12.55-1 17.03-1.94s7.94-2.28 10.37-4.01c2.44-1.73 4.22-4.01 5.36-6.84 1.14-2.83 1.81-6.23 2-10.2.2-3.97.29-8.7.29-14.2 0-5.11-.1-9.51-.29-13.2-.2-3.69-.87-6.8-2-9.31-1.14-2.51-2.93-4.52-5.36-6.01-2.44-1.49-5.89-2.65-10.37-3.48-4.48-.83-10.16-1.36-17.03-1.59-6.88-.24-15.34-.35-25.4-.35h-97.95v71.67ZM822.35 30.18h22.56l-83.05 181.05H739.3l83.05-181.05ZM989.07 109.39c12.42 0 23.06.51 31.94 1.54 8.88 1.03 16.37 2.55 22.46 4.56s10.94 4.52 14.56 7.52c3.61 3 6.4 6.41 8.37 10.24 1.96 3.83 3.24 8.11 3.83 12.84.59 4.74.88 9.87.88 15.39s-.49 10.62-1.47 15.44c-.98 4.81-2.73 9.21-5.25 13.2-2.52 3.99-5.93 7.55-10.25 10.68s-9.82 5.79-16.5 7.98c-6.68 2.19-14.72 3.85-24.11 4.99-9.39 1.13-20.37 1.7-32.95 1.7H950.4c-11.32 0-21.22-.43-29.7-1.3-8.49-.87-15.79-2.18-21.92-3.95-6.13-1.77-11.2-4.01-15.21-6.72s-7.21-5.89-9.61-9.55c-2.4-3.65-4.07-7.82-5.01-12.49-.94-4.67-1.41-9.84-1.41-15.5h22.63c0 7.18 1.02 12.81 3.06 16.88 2.04 4.07 5.42 7.12 10.14 9.16s10.9 3.31 18.57 3.83c7.66.52 17.15.78 28.47.78h30.18c13.2 0 24.17-.63 32.89-1.9 8.72-1.27 15.68-3.28 20.86-6.05 5.19-2.77 8.84-6.39 10.96-10.86 2.12-4.47 3.18-9.91 3.18-16.32s-.73-11.75-2.18-16.02c-1.46-4.27-4.32-7.67-8.6-10.21-4.29-2.53-10.31-4.33-18.09-5.4s-17.96-1.6-30.53-1.6h-31.12c-13.83 0-25.68-.51-35.54-1.53s-18.13-2.49-24.81-4.42c-6.68-1.92-12.02-4.32-16.03-7.19-4.01-2.87-7.05-6.15-9.13-9.84-2.08-3.69-3.44-7.8-4.07-12.32-.63-4.52-.94-9.41-.94-14.68s.49-10.61 1.47-15.32c.98-4.72 2.81-8.98 5.48-12.79 2.67-3.81 6.32-7.21 10.96-10.2 4.64-2.99 10.59-5.48 17.86-7.48s16.01-3.52 26.23-4.54c10.21-1.02 22.24-1.53 36.07-1.53h22.63c11.32 0 21.22.41 29.71 1.24 8.49.83 15.79 2.12 21.92 3.89s11.22 3.97 15.26 6.6c4.05 2.63 7.27 5.78 9.67 9.43 2.4 3.65 4.07 7.8 5.01 12.44.94 4.64 1.41 9.78 1.41 15.44h-22.63c0-7.07-1.02-12.61-3.06-16.62-2.04-4.01-5.42-7.01-10.14-9.02s-10.92-3.26-18.62-3.77c-7.7-.51-17.21-.77-28.53-.77h-22.63c-15.09 0-27.5.53-37.25 1.59-9.74 1.06-17.45 2.85-23.1 5.36-5.66 2.52-9.59 5.89-11.79 10.14-2.2 4.24-3.3 9.55-3.3 15.91 0 3.93.27 7.43.83 10.49.55 3.06 1.67 5.76 3.36 8.07 1.69 2.32 4.07 4.26 7.13 5.83 3.07 1.57 7.11 2.87 12.14 3.89s11.18 1.75 18.45 2.18c7.27.43 15.93.65 25.99.65h31.12ZM1304.97 30.18v18.86h-90.53v162.19h-22.63V49.04h-90.53V30.18h203.68ZM1458.72 169.74h-141.64l-23.62 41.49h-26.2l103.3-181.05h32.49l102.96 181.05h-23.74l-23.53-41.49Zm-10.7-18.86-59.99-105.74-60.21 105.74h120.2ZM1746.29 211.23h-22.63v-33.95c0-5.5-.1-10.23-.29-14.2-.2-3.97-.87-7.37-2-10.2-1.14-2.83-2.93-5.11-5.36-6.84-2.44-1.73-5.89-3.06-10.37-4.01-4.48-.94-10.16-1.59-17.03-1.94-6.88-.35-15.34-.53-25.4-.53h-101.72v71.67h-22.63V30.18h128.13c13.83 0 25.48.49 34.95 1.47 9.47.98 17.29 2.46 23.46 4.42 6.17 1.97 10.92 4.4 14.26 7.31 3.34 2.91 5.78 6.33 7.31 10.26 1.53 3.93 2.44 8.33 2.71 13.2.27 4.87.41 10.25.41 16.15 0 7.54-.53 14.17-1.59 19.86-1.06 5.7-2.85 10.55-5.36 14.56-2.52 4.01-5.86 7.21-10.02 9.61-4.17 2.4-9.39 4.07-15.68 5.01 6.29.94 11.32 2.59 15.09 4.95 3.77 2.36 6.68 5.42 8.72 9.19 2.04 3.77 3.4 8.25 4.07 13.44.67 5.19 1 11.08 1 17.68v33.95Zm-184.82-90.53h105.5c10.06 0 18.52-.18 25.4-.53 6.88-.35 12.55-1 17.03-1.94s7.94-2.28 10.37-4.01c2.43-1.73 4.22-4.01 5.36-6.84 1.14-2.83 1.81-6.23 2-10.2.2-3.97.29-8.7.29-14.2 0-5.11-.1-9.51-.29-13.2-.2-3.69-.87-6.8-2-9.31-1.14-2.51-2.93-4.52-5.36-6.01-2.44-1.49-5.89-2.65-10.37-3.48-4.48-.83-10.16-1.36-17.03-1.59-6.88-.24-15.34-.35-25.4-.35h-105.5v71.67ZM1901.88 109.39c12.42 0 23.06.51 31.94 1.54 8.88 1.03 16.36 2.55 22.45 4.56s10.94 4.52 14.56 7.52c3.61 3 6.4 6.41 8.37 10.24 1.96 3.83 3.24 8.11 3.83 12.84.59 4.74.88 9.87.88 15.39s-.49 10.62-1.47 15.44c-.98 4.81-2.73 9.21-5.25 13.2-2.52 3.99-5.93 7.55-10.25 10.68s-9.82 5.79-16.5 7.98c-6.68 2.19-14.72 3.85-24.11 4.99-9.39 1.13-20.37 1.7-32.95 1.7h-30.18c-11.32 0-21.22-.43-29.7-1.3-8.49-.87-15.79-2.18-21.92-3.95-6.13-1.77-11.2-4.01-15.21-6.72s-7.21-5.89-9.61-9.55c-2.4-3.65-4.07-7.82-5.01-12.49-.94-4.67-1.41-9.84-1.41-15.5h22.63c0 7.18 1.02 12.81 3.07 16.88 2.04 4.07 5.42 7.12 10.14 9.16s10.9 3.31 18.57 3.83c7.66.52 17.15.78 28.47.78h30.18c13.2 0 24.16-.63 32.89-1.9 8.72-1.27 15.68-3.28 20.86-6.05s8.84-6.39 10.96-10.86c2.12-4.47 3.18-9.91 3.18-16.32s-.73-11.75-2.18-16.02c-1.46-4.27-4.32-7.67-8.6-10.21-4.28-2.53-10.31-4.33-18.09-5.4-7.78-1.07-17.96-1.6-30.53-1.6h-31.12c-13.83 0-25.68-.51-35.54-1.53s-18.13-2.49-24.81-4.42c-6.68-1.92-12.02-4.32-16.03-7.19-4.01-2.87-7.05-6.15-9.13-9.84-2.08-3.69-3.44-7.8-4.07-12.32-.63-4.52-.94-9.41-.94-14.68s.49-10.61 1.47-15.32c.98-4.72 2.81-8.98 5.48-12.79 2.67-3.81 6.33-7.21 10.96-10.2 4.64-2.99 10.59-5.48 17.86-7.48s16.01-3.52 26.23-4.54c10.21-1.02 22.24-1.53 36.07-1.53h22.63c11.32 0 21.22.41 29.7 1.24 8.49.83 15.79 2.12 21.92 3.89 6.13 1.77 11.22 3.97 15.26 6.6 4.05 2.63 7.27 5.78 9.67 9.43 2.4 3.65 4.07 7.8 5.01 12.44.94 4.64 1.41 9.78 1.41 15.44h-22.63c0-7.07-1.02-12.61-3.06-16.62-2.04-4.01-5.42-7.01-10.14-9.02s-10.92-3.26-18.62-3.77c-7.7-.51-17.21-.77-28.53-.77h-22.63c-15.09 0-27.5.53-37.25 1.59s-17.45 2.85-23.1 5.36c-5.66 2.52-9.59 5.89-11.79 10.14-2.2 4.24-3.3 9.55-3.3 15.91 0 3.93.27 7.43.83 10.49.55 3.06 1.67 5.76 3.36 8.07 1.69 2.32 4.07 4.26 7.13 5.83 3.06 1.57 7.11 2.87 12.14 3.89s11.18 1.75 18.45 2.18c7.27.43 15.93.65 25.99.65h31.12Z" class="cls-1"/></g></svg>