<svg xmlns="http://www.w3.org/2000/svg" id="Layer_2" data-name="Layer 2" viewBox="0 0 2048 815.25"><defs><style>.cls-1{fill:#1b1924;stroke-width:0}</style></defs><g id="Layer_2_copy" data-name="Layer 2 copy"><path d="M675.61 191.22h-33l-16.29 132.7h33.99c19.43 0 31.95-21.81 37.24-64.82 3.45-28.06 3.54-46.67.29-55.31-3.19-8.46-10.47-12.57-22.23-12.57Z" class="cls-1"/><path d="M798.31 452.28c-1.08-5.14-2.49-9.95-4.22-14.41-.46-1.19-.97-2.35-1.51-3.49-2.78-1.13-6.73-1.7-11.86-1.7v106.17h-47.07v-232.7h71.4c10.3 0 18.41 2.03 24.35 6.09 4.43-15.78 7.87-33.53 10.27-53.15 5-40.76 6.17-76.76 3.45-107.01-2.71-30.06-12.53-53.76-29.21-70.45-16.65-16.67-43.72-25.12-80.46-25.12H511.21l-89.04 725.21h145.08l40.74-331.79h.88c19.38 0 33.36 2.62 41.53 7.8 8.49 5.38 11.31 18.6 8.63 40.43l-34.82 283.56h141.36l32.72-266.47v-62.98Zm-98.78-192.93c-5.42 44.18-18.62 66.57-39.22 66.57h-36.25l16.78-136.7h34.77c12.52 0 20.63 4.67 24.1 13.87 3.41 9.07 3.35 27.47-.18 56.26ZM1150.47 440.22h-4.57v33.28h.48l4.09-33.28z" class="cls-1"/><path d="M791.83 349.26h-10.84v39.12c7.94-5.22 14.92-11.33 20.88-18.34-.07-8.35-.77-13.87-2.11-16.56-1.41-2.82-4.06-4.23-7.93-4.23ZM1161.41 351.11h-15.51v45.35h9.94l5.57-45.35zM264.33 168.91h-29.69l-19.59 159.56h28.62c13.2 0 22.05-4.95 27.06-15.14 5.07-10.32 8.54-22.87 10.31-37.28l8.98-73.13c1.49-12.13-.26-21.1-5.19-26.68-4.3-4.86-11.19-7.32-20.49-7.32Z" class="cls-1"/><path d="M339.9 379.19v-1.94c25.53-6.52 45.89-20.43 60.54-41.34 14.7-20.98 24.26-48.77 28.41-82.6l3.91-31.82c7.2-58.66.38-101.29-20.28-126.72-20.65-25.39-57.65-38.26-109.97-38.26h-196.2L17.26 781.73h195.96c42.28 0 76.51-9.8 101.75-29.13 25.26-19.34 44.67-46.86 57.7-81.78 13.05-35.02 22.59-76.51 28.33-123.32 5.34-43.47 4.31-80.81-3.04-110.99-7.29-29.91-26.82-49.2-58.05-57.32Zm-76.09 130.96-11.16 90.9c-4.45 36.22-26.05 54.59-64.19 54.59-3.65 0-8.51-.28-14.45-.83l-1.03-.1 26.11-212.63h27.74c17.45 0 28.77 6.26 33.64 18.61 4.77 12.08 5.89 28.72 3.35 49.45Zm28.19-307-8.98 73.13c-1.8 14.64-5.33 27.39-10.5 37.92-5.3 10.79-15.01 16.26-28.86 16.26h-30.88l20.08-163.56h31.46c9.9 0 17.3 2.69 21.99 7.99 5.33 6.02 7.24 15.53 5.68 28.25ZM795.96 437.15c.77 1.99 1.47 4.05 2.11 6.17-.37-3.1-1.18-5.39-2.41-6.88.1.24.21.47.3.71ZM1037.49 338.73h61.08V473.5h-61.08z" class="cls-1"/><path d="M226.83 444.09h-25.97l-25.64 208.82c5.42.48 9.87.73 13.24.73 18.54 0 33.16-4.44 43.45-13.19 10.29-8.74 16.6-22.08 18.75-39.65l11.16-90.9c2.5-20.4 1.42-36.71-3.22-48.47-4.54-11.51-15.23-17.34-31.78-17.34ZM780.99 390.77v1.59h11.24c6.16 0 9.36-6.44 9.63-19.28-6.02 6.74-12.98 12.65-20.86 17.69ZM1251.28 480.95c0 5.38.81 9.59 2.45 12.63 1.63 3.04 4.47 4.56 8.53 4.56s7.16-1.23 8.79-3.7c1.63-2.47 2.45-6.52 2.45-12.16 0-7.14-.71-13.11-2.12-17.92-1.41-4.8-3.86-9.39-7.34-13.75-3.48-4.36-8.31-9.45-14.48-15.27L1233.41 420l-6.99 31.86h24.86v29.09ZM1001.18 538.86h-10.23v-232.7h38.81l13.65-111.15h142.96l17-138.48h-115.84c.94 1.33 1.72 2.83 2.33 4.51.73 2 1.09 4.45 1.09 7.33 0 5.81-1.07 10.37-3.22 13.66-2.14 3.29-5.88 4.94-11.2 4.94-5.65 0-9.72-1.41-12.22-4.22s-3.74-7.29-3.74-13.43v-6.05h12.23V71c0 1.43.22 2.55.65 3.36s1.19 1.21 2.27 1.21 1.9-.33 2.34-.98c.43-.66.65-1.73.65-3.23 0-1.9-.19-3.49-.56-4.76-.38-1.28-1.03-2.5-1.95-3.66s-2.21-2.51-3.85-4.06l-2.48-2.35h-35.53v29.88h-12.38V56.53h-10.69v3.65H999.6v14.17h12.97v12.06h-25.56V56.53h-16.24v19.33h12.73v10.55h-25.1V56.53h-43.92l-30.65 249.63h21.29v168.57c0 3.88.22 7.6.66 11.17.44 3.57 1.45 6.5 3.04 8.79 1.59 2.29 4.14 3.44 7.67 3.44s6.21-1.12 7.8-3.37c1.59-2.25 2.58-5.18 2.97-8.79.4-3.61.6-7.36.6-11.24V306.16h45.22v170.42c0 21.15-4.58 37.17-13.75 48.06s-23.45 16.33-42.84 16.33-33.67-5.44-42.84-16.33c-6.68-7.93-10.91-18.6-12.73-31.98l-35.49 289.07h298.37l17.16-139.72H988.49l12.67-103.15ZM1779.67 346.7l35.63-290.18h-141.78l-89.04 725.21h142.6l43.12-351.16 1.98.02 36.02 351.14h148.77l-49.82-393.29.08-.23 121.8-331.69H1884.9l-103.3 290.63-1.93-.45zM1416.11 180.48l-72.69 367.8h63.93l13.52-367.8h-4.76z" class="cls-1"/><path d="M0 0v815.25h2048V0H0Zm1044.16 23.89h13.15v10.16l-3.59 8.61h-7.42l2.32-8.3h-4.46V23.88ZM402.98 547.75c-5.77 46.96-15.34 88.6-28.45 123.77-13.16 35.28-32.79 63.09-58.35 82.67-25.59 19.6-60.24 29.54-102.96 29.54H15l.14-1.12 89.4-728.09h197.97c52.95 0 90.47 13.12 111.52 39 21.02 25.86 27.99 69 20.72 128.22l-3.91 31.82c-4.19 34.16-13.87 62.25-28.76 83.5-14.25 20.34-33.8 34.17-58.15 41.17 29.95 8.84 48.77 28.27 55.97 57.81 7.41 30.42 8.45 68 3.08 111.71Zm364.38 235.98H621.97l35.09-285.81c2.54-20.69-.05-33.64-7.71-38.49-7.73-4.89-21.04-7.41-39.58-7.49l-40.74 331.79H419.92l.14-1.12 89.4-728.09h224.01c37.29 0 64.84 8.65 81.88 25.7 17.01 17.03 27.03 41.15 29.78 71.69 2.73 30.39 1.56 66.54-3.46 107.43-2.46 20.02-5.99 38.11-10.55 54.18.31.25.61.5.91.76 6.08 5.42 10.16 13 12.23 22.74 2.07 9.74 3.11 21.18 3.11 34.31s-1.61 22.83-4.83 30.41c-3.22 7.58-9.28 12.82-18.18 15.73 7.32 1.5 12.45 5.14 15.4 10.91 2.95 5.77 4.43 13.24 4.43 22.41v88.05h-45.88v-7.18l-30.95 252.06Zm358.24 0H823.2l.14-1.12 36.76-299.39c-.11-2.16-.17-4.36-.17-6.63V306.17h21.91l30.9-251.63h45.69v-30h12.38v30h16.24v-30h24.75v11.95h-12.16v12.06h11.67v5.99H1022V36.43h-7.35V24.55h27.07v11.88h-7.35v18.11h33.42l-.97-.92c-4.15-3.91-6.22-8.39-6.22-13.43s1.22-9.29 3.67-12.06c2.45-2.77 5.99-4.15 10.63-4.15 5.67 0 9.7 1.51 12.08 4.54s3.57 7.62 3.57 13.78h-12.59v-4.25c0-.84-.24-1.5-.72-1.97s-1.13-.7-1.95-.7c-.98 0-1.71.28-2.16.83-.46.55-.69 1.26-.69 2.13s.23 1.81.7 2.81c.47 1.01 1.39 2.17 2.78 3.48l7.14 6.86c1.03.98 1.98 2.01 2.88 3.07h119.7l-17.49 142.48h-142.96l-13.4 109.15h5.72v30.57h61.08v-30.57h93.08v44.95h-28.22l-5.57 45.35h31.94v43.76h-37.31l-4.33 35.27h-2.25v18.01h48.79v45.35h-96.12v-63.36h-61.08v23.7h47.86v39.66h-82.15l-12.42 101.15h152.47l-17.65 143.72Zm434.41-728.18-20.32 728.18h-139.6l4.08-117.34h-85.74l-23.5 117.34h-143.37l.27-1.21 59.41-270.81c-3.97-9.73-5.97-22.08-5.97-37.11v-22.74h19.1l7.34-33.47-3.04-2.89c-15.6-14.72-23.4-31.55-23.4-50.51s4.61-34.95 13.82-45.35c8.8-9.94 21.38-15.12 37.7-15.56l54.75-249.56h248.5l-.03 1.03Zm471.39.32-122.2 332.8 50.05 395.06H1806.4l-.09-.9-35.2-343.21-42.25 344.1h-146.63l.14-1.12 89.4-728.09h145.8l-34.8 283.4 100.72-283.4h148.41l-.49 1.34Z" class="cls-1"/><path d="M1259.08 304.04c21.33 0 36.47 5.69 45.42 17.06 8.95 11.37 13.42 28.65 13.42 51.83h-47.33v-16c0-3.17-.91-5.64-2.71-7.4-1.81-1.76-4.25-2.64-7.34-2.64-3.7 0-6.41 1.04-8.13 3.11-1.72 2.07-2.58 4.74-2.58 8s.88 6.79 2.64 10.58c1.76 3.79 5.24 8.15 10.44 13.09l26.84 25.78c5.38 5.11 10.31 10.51 14.81 16.2 4.5 5.69 8.11 12.3 10.84 19.83 2.73 7.54 4.1 16.73 4.1 27.57 0 21.86-4.03 38.98-12.1 51.37-8.06 12.38-22.1 18.58-42.11 18.58-21.24 0-36.56-5.29-45.94-15.87-2.61-2.95-4.85-6.4-6.74-10.31l-58.56 266.94h139.25l23.5-117.34h89.45l-4.08 117.34h135.58l20.23-725.21h-244.84l-54.3 247.52h.24Zm82.14 245.05 73.25-370.61h8.47l-13.66 371.8h-68.29l.24-1.19Z" class="cls-1"/></g></svg>