<?xml version="1.0" encoding="UTF-8"?>
<svg id="Layer_2" data-name="Layer 2" xmlns="http://www.w3.org/2000/svg" viewBox="0 0 362.12 106.97">
  <defs>
    <style>
      .cls-1 {
        fill: #fff;
        stroke-width: 0px;
      }
    </style>
  </defs>
  <g id="Spotify">
    <g id="Spotify-2" data-name="Spotify">
      <g>
        <path class="cls-1" d="M140.56,44.1c1.69,0,9.06-.55,18.01,6.21.4.3.48.88.19,1.29l-4.3,6.03c-.31.43-.91.52-1.33.2-.79-.61-2.14-1.58-3.73-2.39-2.54-1.3-5.93-2.4-8.84-2.4s-7.6.95-7.6,5.55c0,3.7,3.27,5.09,13.35,7.57,6.56,1.71,14.22,4.86,14.22,14.91,0,9.25-7.69,15.09-18.3,15.09-6.39,0-15.15-2.43-20.72-8.03-.34-.34-.35-.89-.04-1.25l4.84-5.7c.34-.41.96-.44,1.35-.08,1.84,1.72,7.21,6.08,14.54,6.08,8.73,0,8.38-5.26,8.38-6.04,0-1.68-1.21-4.02-5.52-5.23s-15.12-3.24-19.16-7.95c-2.49-2.95-2.83-6.21-2.83-8.67,0-5.55,3.58-15.17,17.49-15.17Z"/>
        <path class="cls-1" d="M185.6,56.15c-7.78,0-11.99,5.73-11.99,5.73v-3.97c0-.52-.42-.93-.93-.93h-7.99c-.52,0-.93.42-.93.93v47.96c0,.52.42.93.93.93h8.02c.52,0,.93-.42.93-.93v-14.94s3.9,5.23,12.38,5.23c6.72,0,17.55-5.4,17.55-19.84s-10.19-20.17-17.97-20.17ZM183.52,87.63c-5.44,0-10.05-4.72-10.05-11.48,0-4.12,2.58-11.31,9.94-11.31s10.16,5.93,10.16,11.31-2.97,11.48-10.05,11.48Z"/>
        <path class="cls-1" d="M226.63,56.15c-12.58,0-20.37,10.34-20.37,20.09,0,10.68,8.29,20.02,20.46,20.02s20.46-9.61,20.46-20.02-7.96-20.09-20.54-20.09ZM226.72,87.63c-5.13,0-10.74-4.3-10.74-11.43s5.05-11.36,10.74-11.36c4.37,0,10.57,3.61,10.57,11.36s-5.44,11.43-10.57,11.43Z"/>
        <path class="cls-1" d="M272.33,64.62v-6.81c0-.52-.42-.93-.93-.93h-9.12v-9.22c0-.52-.42-.93-.93-.93h-7.85c-.52,0-.93.42-.93.93v9.22h-3.84c-.52,0-.93.42-.93.93v6.81c0,.52.42.93.93.93h3.84v19.28c0,4.34,1.98,11.2,10.6,11.2,3.97,0,7.36-1.39,8.63-1.98.33-.15.54-.48.54-.85v-6.67c0-.6-.67-.96-1.17-.62-.9.62-2.37,1.28-4.55,1.28-4.12,0-4.34-2.8-4.34-4.78v-16.86h9.12c.52,0,.93-.42.93-.93Z"/>
        <circle class="cls-1" cx="281.26" cy="46.13" r="6.07"/>
        <rect class="cls-1" x="276.37" y="56.87" width="9.74" height="38.5" rx="1.42" ry="1.42"/>
        <path class="cls-1" d="M294.79,65.55h-3.79c-.52,0-.93-.42-.93-.93v-6.81c0-.52.42-.93.93-.93h3.79v-2.47c0-1.65.27-12.03,11.92-12.03,5.77,0,7.65,1.29,7.65,1.29v7c0,.7-.25,1.28-.99.99s-2.92-.86-4.7-.86-4.2,1.03-4.2,4.16v1.92h14.27c.39,0,.73.24.87.6l9.98,25.82,8.97-25.73c.13-.38.48-.63.88-.63h8.77c.42,0,.7.41.55.8-2.06,5.32-13.72,35.49-15.22,39.32-1.65,4.2-4.45,9.93-12.48,9.93-4.66,0-7.66-1.56-8.91-2.38-.39-.26-.54-.76-.34-1.18l2.86-6.13c.12-.26.43-.36.68-.21.82.5,2.68,1.48,4.85,1.48,3.19,0,4.61-3.77,4.61-3.77l-12.23-29.23h-8.05v28.96c0,.52-.42.93-.93.93h-7.89c-.52,0-.93-.42-.93-.93l.02-28.95Z"/>
        <path class="cls-1" d="M353.56,59.54h2.92c.81,0,1.44.23,1.86.65.36.36.55.86.55,1.46v.02c0,1.03-.56,1.68-1.37,1.98l1.56,2.28h-1.64l-1.37-2.04h-1.1v2.04h-1.4v-6.38ZM356.39,62.64c.68,0,1.07-.36,1.07-.9v-.02c0-.6-.42-.91-1.1-.91h-1.39v1.83h1.42Z"/>
        <path class="cls-1" d="M356.1,68.9c-3.32,0-6.02-2.7-6.02-6.02s2.7-6.02,6.02-6.02,6.02,2.7,6.02,6.02-2.7,6.02-6.02,6.02ZM356.1,57.52c-2.96,0-5.36,2.41-5.36,5.36s2.41,5.36,5.36,5.36,5.36-2.41,5.36-5.36-2.41-5.36-5.36-5.36Z"/>
      </g>
      <path class="cls-1" d="M49.86,2.31C22.32,2.31,0,24.64,0,52.17s22.32,49.86,49.86,49.86,49.86-22.32,49.86-49.86S77.4,2.31,49.86,2.31ZM72.69,74.3c-.61,1.02-1.7,1.59-2.81,1.59-.57,0-1.16-.15-1.69-.47-19.63-11.81-42.91-4.98-43.14-4.91-1.73.52-3.56-.45-4.08-2.18-.53-1.73.45-3.56,2.17-4.08,1.06-.32,26.24-7.78,48.43,5.56,1.55.93,2.05,2.94,1.12,4.49ZM78.88,60.5c-.72,1.24-2.02,1.94-3.36,1.94-.65,0-1.32-.17-1.93-.52-24.67-14.18-49.51-5.93-49.76-5.84-2.02.69-4.22-.38-4.92-2.41-.69-2.02.38-4.22,2.41-4.92,1.15-.39,28.45-9.46,56.13,6.45,1.85,1.07,2.49,3.43,1.43,5.28ZM81.65,47.19c-.75,0-1.5-.18-2.21-.55-28.43-14.93-57.64-5.99-57.93-5.9-2.51.79-5.19-.6-5.98-3.11-.79-2.51.6-5.18,3.11-5.98,1.35-.42,33.32-10.21,65.23,6.55,2.33,1.22,3.23,4.1,2,6.43-.85,1.62-2.51,2.55-4.22,2.55Z"/>
      <g>
        <path class="cls-1" d="M121.26,5.32h3.94v21.97h11.81v3.39h-15.75V5.32Z"/>
        <path class="cls-1" d="M141.21,7.16c0-1.21.98-2.2,2.21-2.2s2.21.98,2.21,2.2-.97,2.18-2.21,2.18-2.21-.98-2.21-2.18ZM141.52,12.19h3.8v18.49h-3.8V12.19Z"/>
        <path class="cls-1" d="M149.89,25.39l-.02-.16h3.76l.04.18c.35,1.71,1.62,2.71,3.96,2.71s3.66-.95,3.66-2.44v-.02c0-1.2-.67-1.88-2.65-2.36l-3.02-.69c-3.52-.81-5.26-2.5-5.26-5.19v-.02c0-3.3,2.88-5.57,7.14-5.57s7.01,2.44,7.21,5.59l.02.21h-3.57l-.02-.12c-.23-1.62-1.49-2.74-3.64-2.74s-3.32.97-3.32,2.44v.02c0,1.14.76,1.92,2.74,2.39l3.01.69c3.78.88,5.22,2.37,5.22,5.03v.02c0,3.38-3.16,5.7-7.52,5.7-4.62,0-7.33-2.29-7.72-5.66Z"/>
        <path class="cls-1" d="M170.58,25.81v-10.6h-2.65v-3.02h2.65v-4.82h3.88v4.82h3.46v3.02h-3.46v10.37c0,1.88.84,2.44,2.44,2.44.4,0,.74-.04,1.02-.07v2.94c-.44.07-1.16.16-1.93.16-3.66,0-5.41-1.55-5.41-5.24Z"/>
        <path class="cls-1" d="M181.23,21.51v-.02c0-5.78,3.34-9.65,8.53-9.65s8.37,3.73,8.37,9.28v1.28h-13.1c.07,3.5,1.99,5.54,5.01,5.54,2.25,0,3.74-1.16,4.22-2.55l.05-.14h3.6l-.04.19c-.6,2.94-3.45,5.61-7.93,5.61-5.43,0-8.72-3.71-8.72-9.54ZM185.08,19.71h9.28c-.32-3.2-2.11-4.76-4.59-4.76s-4.36,1.67-4.69,4.76Z"/>
        <path class="cls-1" d="M202.5,12.19h3.8v2.79h.09c.97-1.88,2.87-3.15,5.66-3.15,4.06,0,6.4,2.62,6.4,6.87v11.97h-3.81v-11.25c0-2.78-1.3-4.34-3.94-4.34s-4.39,1.93-4.39,4.82v10.78h-3.8V12.19Z"/>
        <path class="cls-1" d="M231.45,21.44v-.04c0-5.91,3.5-9.56,8.75-9.56s8.79,3.64,8.79,9.56v.04c0,5.96-3.48,9.62-8.77,9.62s-8.77-3.67-8.77-9.62ZM245.1,21.44v-.04c0-4.04-1.93-6.38-4.9-6.38s-4.87,2.34-4.87,6.38v.04c0,4.1,1.93,6.43,4.9,6.43s4.87-2.36,4.87-6.43Z"/>
        <path class="cls-1" d="M253.36,12.19h3.8v2.79h.09c.97-1.88,2.87-3.15,5.66-3.15,4.06,0,6.4,2.62,6.4,6.87v11.97h-3.81v-11.25c0-2.78-1.3-4.34-3.94-4.34s-4.39,1.93-4.39,4.82v10.78h-3.8V12.19Z"/>
      </g>
    </g>
  </g>
</svg>