<?xml version="1.0" encoding="UTF-8"?>
<svg id="Layer_2" data-name="Layer 2" xmlns="http://www.w3.org/2000/svg" viewBox="0 0 408.4 102.68">
  <defs>
    <style>
      .cls-1 {
        fill: #fff;
        stroke-width: 0px;
      }
    </style>
  </defs>
  <g id="Layer_7" data-name="Layer 7">
    <g id="YouTube_Music" data-name="YouTube Music">
      <g>
        <path class="cls-1" d="M121.58,5.32h3.94v21.97h11.81v3.39h-15.75V5.32Z"/>
        <path class="cls-1" d="M141.53,7.16c0-1.21.98-2.2,2.21-2.2s2.21.98,2.21,2.2-.97,2.18-2.21,2.18-2.21-.98-2.21-2.18ZM141.85,12.19h3.8v18.49h-3.8V12.19Z"/>
        <path class="cls-1" d="M150.21,25.39l-.02-.16h3.76l.04.18c.35,1.71,1.62,2.71,3.96,2.71s3.66-.95,3.66-2.44v-.02c0-1.2-.67-1.88-2.65-2.36l-3.02-.69c-3.52-.81-5.26-2.5-5.26-5.19v-.02c0-3.3,2.88-5.57,7.14-5.57s7.01,2.44,7.21,5.59l.02.21h-3.57l-.02-.12c-.23-1.62-1.49-2.74-3.64-2.74s-3.32.97-3.32,2.44v.02c0,1.14.76,1.92,2.74,2.39l3.01.69c3.78.88,5.22,2.37,5.22,5.03v.02c0,3.38-3.16,5.7-7.52,5.7-4.62,0-7.33-2.29-7.72-5.66Z"/>
        <path class="cls-1" d="M170.9,25.81v-10.6h-2.65v-3.02h2.65v-4.82h3.88v4.82h3.46v3.02h-3.46v10.37c0,1.88.84,2.44,2.44,2.44.4,0,.74-.04,1.02-.07v2.94c-.44.07-1.16.16-1.93.16-3.66,0-5.41-1.55-5.41-5.24Z"/>
        <path class="cls-1" d="M181.55,21.51v-.02c0-5.78,3.34-9.65,8.53-9.65s8.37,3.73,8.37,9.28v1.28h-13.1c.07,3.5,1.99,5.54,5.01,5.54,2.25,0,3.74-1.16,4.22-2.55l.05-.14h3.6l-.04.19c-.6,2.94-3.45,5.61-7.93,5.61-5.43,0-8.72-3.71-8.72-9.54ZM185.4,19.71h9.28c-.32-3.2-2.11-4.76-4.59-4.76s-4.36,1.67-4.69,4.76Z"/>
        <path class="cls-1" d="M202.82,12.19h3.8v2.79h.09c.97-1.88,2.87-3.15,5.66-3.15,4.06,0,6.4,2.62,6.4,6.87v11.97h-3.81v-11.25c0-2.78-1.3-4.34-3.94-4.34s-4.39,1.93-4.39,4.82v10.78h-3.8V12.19Z"/>
        <path class="cls-1" d="M231.77,21.44v-.04c0-5.91,3.5-9.56,8.75-9.56s8.79,3.64,8.79,9.56v.04c0,5.96-3.48,9.62-8.77,9.62s-8.77-3.67-8.77-9.62ZM245.43,21.44v-.04c0-4.04-1.93-6.38-4.9-6.38s-4.87,2.34-4.87,6.38v.04c0,4.1,1.93,6.43,4.9,6.43s4.87-2.36,4.87-6.43Z"/>
        <path class="cls-1" d="M253.69,12.19h3.8v2.79h.09c.97-1.88,2.87-3.15,5.66-3.15,4.06,0,6.4,2.62,6.4,6.87v11.97h-3.81v-11.25c0-2.78-1.3-4.34-3.94-4.34s-4.39,1.93-4.39,4.82v10.78h-3.8V12.19Z"/>
      </g>
      <g>
        <g>
          <path class="cls-1" d="M50,2.68C22.39,2.68,0,25.07,0,52.68s22.39,50,50,50,50-22.39,50-50S77.61,2.68,50,2.68ZM50,83.26c-16.89,0-30.58-13.69-30.58-30.58s13.69-30.58,30.58-30.58,30.58,13.69,30.58,30.58-13.69,30.58-30.58,30.58Z"/>
          <path class="cls-1" d="M50,26.17c-14.64,0-26.51,11.87-26.51,26.51s11.87,26.51,26.51,26.51,26.51-11.87,26.51-26.51-11.87-26.51-26.51-26.51ZM40.66,67.32v-29.43l25.57,14.65-25.57,14.78Z"/>
        </g>
        <g>
          <polygon class="cls-1" points="138.84 49.84 133.96 72.99 129.02 49.84 121.58 49.84 130.11 80.93 130.11 96.13 137.61 96.13 137.61 81.07 146.34 49.84 138.84 49.84"/>
          <path class="cls-1" d="M155.16,61.52c-4.46,0-10.75,1.34-10.75,14.25v5.54c0,7.53.91,15.16,10.38,15.16s10.75-6.4,10.75-15.48v-3.71c0-6.88-.43-15.76-10.38-15.76ZM157.83,85.5c0,3.48-.57,5.95-2.86,5.95s-2.81-2.98-2.81-5.91v-12.55c0-4.92,1.36-6.23,2.81-6.23,2.77,0,2.86,3.83,2.86,5.88v12.86Z"/>
          <path class="cls-1" d="M182.47,89.05s-.81,2.19-3.24,2.19c-1.68,0-2.19-1.61-2.19-3.87s.05-25.14.05-25.14h-7.63v24.46c0,4.95.7,9.79,6.5,9.79s7.47-4.79,7.47-4.79l.75,4.45h5.86v-33.9h-7.58v26.83h0Z"/>
          <path class="cls-1" d="M221.5,89.05s-.81,2.19-3.24,2.19c-1.68,0-2.19-1.61-2.19-3.87s.05-25.14.05-25.14h-7.63v24.46c0,4.95.7,9.79,6.5,9.79s7.47-4.79,7.47-4.79l.75,4.45h5.86v-33.9h-7.58v26.83h0Z"/>
          <path class="cls-1" d="M341.28,89.05s-.81,2.19-3.24,2.19c-1.68,0-2.13-1.61-2.13-3.87v-25.14h-7.63v24.46c0,4.95.7,9.79,6.5,9.79s7.47-4.79,7.47-4.79l.75,4.45h5.86v-33.9h-7.58v26.83Z"/>
          <polygon class="cls-1" points="210.75 49.84 188.23 49.84 188.23 55.88 195.7 55.88 195.7 96.13 203.22 96.13 203.22 55.88 210.75 55.88 210.75 49.84"/>
          <path class="cls-1" d="M248.01,61.58c-3.31,0-5.74,2.1-7.1,4.66v-18.23h-7.31v48.12h6.38l.83-3.45s2.03,3.79,6.6,3.79,7.58-3.66,7.58-13.65c0,0,.19-7.34,0-7.53,0-6.88-.86-13.71-6.99-13.71ZM247.36,82.74c0,7.38-1.61,8.39-3.37,8.39s-2.94-1.68-2.94-1.68v-19.35c.18-1.22,1.86-3.15,3.29-3.15,2.68,0,3.02,3.4,3.02,8.42v7.38Z"/>
          <path class="cls-1" d="M268.61,61.52c-4.27,0-10.29,1.34-10.29,14.25v5.54c0,7.53.87,15.16,9.93,15.16,7.23,0,10.29-3.44,10.08-10.35,0-.17-6.68-.51-6.68-.51,0,3.41-.28,5.84-2.96,5.84s-2.96-2.98-2.96-5.91v-3.87h12.78v-4.45c.01-6.87.32-15.7-9.92-15.7ZM265.75,77.22v-4.24c0-4.92.82-6.27,2.79-6.27,3.23,0,2.84,3.87,2.84,5.91,0,.84.05,2.59.11,4.59h-5.73Z"/>
          <path class="cls-1" d="M401.8,83.49c.18,5.56-.79,7.96-2.89,7.96s-2.7-2.01-2.7-5.84v-12.47c0-5.23,1.04-6.41,2.58-6.41,2.47,0,2.8,2.9,2.8,5.73v2.59l6.56-.47c.68-10.21-2.9-13.05-9.33-13.05-4.27,0-10.29,1.34-10.29,14.25v5.54c0,7.53.87,15.16,9.93,15.16,9.56,0,9.94-5.99,9.94-12.58l-6.6-.4Z"/>
          <path class="cls-1" d="M309.92,63.12c-.85,4.33-2.98,15.34-3.69,22.79h-.57c-.14-6.53-6.26-36.07-6.26-36.07h-10.76v46.29h6.65v-38.2l7.39,38.2h6.61l7.39-37.98v37.98h6.67v-46.29h-10.65s-1.92,8.94-2.77,13.27Z"/>
          <path class="cls-1" d="M364.85,76.43c-3.48-2.72-5.16-3.76-5.16-6.7,0-1.68,1.01-2.8,3.07-2.8,1.81,0,2.9,1.02,2.89,6.5l6.38-.26s.04-2.73-.26-5.05c-.29-2.32-1.8-6.49-8.99-6.49-4.83,0-9.66,1.7-9.66,8.99,0,5.27,2.69,7.78,7.74,11.76,4.09,3.1,5.07,4.44,5.07,6.09s-.79,3.08-3.08,3.08-3.51-2.36-3.26-5.91l-6.46.03s-.31,4.16.55,6.34c.86,2.19,2.77,4.7,8.88,4.7s9.9-2.62,9.9-9c0-6.38-4.13-8.56-7.61-11.29Z"/>
          <rect class="cls-1" x="376.6" y="62.22" width="7.2" height="33.71"/>
          <path class="cls-1" d="M381.18,48.89h-1.57c-1.82,0-3.29,1.47-3.29,3.29v2.72c0,1.82,1.47,3.29,3.29,3.29h1.57c1.82,0,3.29-1.47,3.29-3.29v-2.72c0-1.82-1.47-3.29-3.29-3.29Z"/>
        </g>
      </g>
    </g>
  </g>
</svg>